<ttFont>
<head>
    <!-- Most of this table will be recalculated by the compiler -->
    <tableVersion value="1.0"/>
    <fontRevision value="4.00299"/>
    <checkSumAdjustment value="0xb43d05a9"/>
    <magicNumber value="0x5f0f3cf5"/>
    <flags value="00000000 00000011"/>
    <unitsPerEm value="1000"/>
    <created value="Tue Mar  5 22:43:57 2019"/>
    <modified value="Tue Mar  5 22:43:57 2019"/>
    <xMin value="-528"/>
    <yMin value="-572"/>
    <xMax value="2629"/>
    <yMax value="1065"/>
    <macStyle value="00000000 00000010"/>
    <lowestRecPPEM value="3"/>
    <fontDirectionHint value="2"/>
    <indexToLocFormat value="0"/>
    <glyphDataFormat value="0"/>
  </head>
          <CharString index="0">
            -125 -65 79 125 414 callsubr
            273 callsubr
            14 83 rcurveline
            202 72 callsubr
            -113 hhcurveto
            return
          </CharString>
          <CharString index="1">
            417 callgsubr
            68 callsubr
            -12 50 48 9 334 callgsubr
            -82 hlineto
            -6 -30 rlineto
            -100 -18 52 -71 107 hhcurveto
            116 59 80 96 16 hvcurveto
            47 270 rlineto
            return
          </CharString>
          <CharString index="2">
            hlineto
            -95 callsubr
            return
          </CharString>
          <CharString index="3">
            -27 callgsubr
            11 56 -23 callgsubr
            -83 -15 -45 -49 -67 hhcurveto
            return
          </CharString>
          <CharString index="4">
            41 callsubr
            -103 callgsubr
            -42 callgsubr
            rlinecurve
            return
          </CharString>
          <CharString index="5">
            344 -7 rmoveto
            237 175 183 240 170 -115 119 -178 -235 -176 -183 -239 -171 116 -119 176 hvcurveto
            13 82 rmoveto
            -130 -81 82 132 179 123 155 181 131 81 -81 -132 -180 -125 -155 -180 hvcurveto
            return
          </CharString>
          <CharString index="6">
            -83 callsubr
            -42 72 98 18 hvcurveto
            return
          </CharString>
          <CharString index="7">
            -24 callgsubr
            -61 -54 -72 hhcurveto
            return
          </CharString>
          <CharString index="8">
            hlineto
            -102 callgsubr
            return
          </CharString>
          <CharString index="9">
            -100 -18 -71 -60 -84 hhcurveto
            -14 -17 2 3 -13 hvcurveto
            -11 -65 rlineto
            -5 17 23 -3 23 hhcurveto
            120 104 85 147 26 hvcurveto
            133 24 -72 92 -120 hhcurveto
            -91 -66 -45 -60 -39 154 callgsubr
            return
          </CharString>
          <CharString index="10">
            -25 callgsubr
            152 callgsubr
            -99 -18 -68 -71 -103 hhcurveto
            -9 -11 1 1 -9 hvcurveto
            -13 -73 rlineto
            -1 11 15 -1 10 hhcurveto
            return
          </CharString>
          <CharString index="11">
            197 172 -104 callsubr
            return
          </CharString>
          <CharString index="12">
            -12 -70 rlineto
            return
          </CharString>
          <CharString index="13">
            69 callgsubr
            102 18 85 63 93 12 callgsubr
            -75 -14 -66 299 callgsubr
            return
          </CharString>
          <CharString index="14">
            -81 -12 -45 -60 -77 hhcurveto
            -81 -30 58 82 14 hvcurveto
            return
          </CharString>
          <CharString index="15">
            rmoveto
            3 18 rlineto
            -54 hlineto
            -48 -9 -29 -28 -64 hhcurveto
            -64 -19 28 48 8 hvcurveto
            -54 hlineto
            -3 -17 rlineto
            -74 -12 40 -57 92 hhcurveto
            92 60 56 74 13 hvcurveto
            return
          </CharString>
          <CharString index="16">
            511 626 rmoveto
            13 72 rlineto
            -374 hlineto
            -124 -698 rlineto
            375 610 callsubr
            -284 hlineto
            44 245 rlineto
            253 -53 callsubr
            -253 hlineto
            42 239 rlineto
            return
          </CharString>
          <CharString index="17">
            -95 -17 -84 -41 -65 hhcurveto
            -94 -52 64 96 16 hvcurveto
            109 20 93 29 callsubr
            return
          </CharString>
          <CharString index="18">
            73 callgsubr
            -88 callgsubr
            return
          </CharString>
          <CharString index="19">
            rmoveto
            -80 callgsubr
            return
          </CharString>
          <CharString index="20">
            -99 callsubr
            endchar
          </CharString>
          <CharString index="21">
            -38 -216 rlineto
            -95 11 callsubr
            -74 callsubr
            return
          </CharString>
          <CharString index="22">
            -17 -96 rlineto
            92 hlineto
            57 321 rlineto
            3 20 2 19 16 vvcurveto
            121 -81 65 -113 -141 -90 -85 -115 -37 vhcurveto
            89 hlineto
            80 27 60 44 74 hhcurveto
            78 40 -43 -78 hvcurveto
            return
          </CharString>
          <CharString index="23">
            -105 callsubr
            112 hlineto
            -41 return
          </CharString>
          <CharString index="24">
            -72 callsubr
            -106 return
          </CharString>
          <CharString index="25">
            59 callgsubr
            196 hlineto
            -6 callgsubr
          </CharString>
          <CharString index="26">
            -68 -33 50 71 13 hvcurveto
            52 295 rlineto
            217 hlineto
            -52 -295 rlineto
            -71 -12 -49 -50 -68 hhcurveto
            return
          </CharString>
          <CharString index="27">
            19 callgsubr
            -248 rlineto
            114 callsubr
            771 402 -88 callsubr
            return
          </CharString>
          <CharString index="28">
            rmoveto
            -236 -125 -12 -68 234 114 rlineto
            return
          </CharString>
          <CharString index="29">
            12 70 rlineto
            return
          </CharString>
          <CharString index="30">
            -62 callgsubr
            139 81 68 98 18 hvcurveto
            return
          </CharString>
          <CharString index="31">
            -81 callgsubr
            -42 callsubr
            return
          </CharString>
          <CharString index="32">
            hlineto
            -86 callsubr
            return
          </CharString>
          <CharString index="33">
            -68 callsubr
            14 77 rlineto
            return
          </CharString>
          <CharString index="34">
            rmoveto
            -80 callsubr
            return
          </CharString>
          <CharString index="35">
            13 73 rlineto
            -1 -10 -9 -1 -9 hhcurveto
            return
          </CharString>
          <CharString index="36">
            -60 callgsubr
            -49 -279 rlineto
            83 hlineto
            return
          </CharString>
          <CharString index="37">
            rmoveto
            -209 -37 128 -146 196 hhcurveto
            189 162 139 173 46 hvcurveto
            -80 callgsubr
            -375 hlineto
            -13 -72 rlineto
            278 hlineto
            -140 -38 -110 -88 -138 hhcurveto
            -147 -90 106 167 29 hvcurveto
            168 30 128 106 147 hhcurveto
            98 68 -47 -81 24 hvcurveto
            109 hlineto
            134 -29 -108 76 -148 hhcurveto
            -196 -179 -147 -209 -37 hvcurveto
            return
          </CharString>
          <CharString index="38">
            -25 callsubr
            131 callgsubr
            return
          </CharString>
          <CharString index="39">
            -105 -19 64 -72 111 hhcurveto
            115 77 74 133 23 hvcurveto
            return
          </CharString>
          <CharString index="40">
            204 -272 123 callgsubr
            120 5 86 53 25 136 160 callsubr
            -94 -71 -108 107 callgsubr
            return
          </CharString>
          <CharString index="41">
            231 callgsubr
            327 rlineto
            379 callgsubr
            return
          </CharString>
          <CharString index="42">
            242 670 rmoveto
            -10 callsubr
            -132 hlineto
            return
          </CharString>
          <CharString index="43">
            rmoveto
            147 95 82 109 4 hvcurveto
            11 227 -349 -45 10 158 rrcurveto
            67 4 58 40 82 hhcurveto
            87 41 -53 -51 -4 hvcurveto
            95 hlineto
            102 5 -79 77 -140 hhcurveto
            -141 -99 -79 -118 -1 hvcurveto
            -7 -221 344 57 -11 -168 rrcurveto
            -71 -4 -57 -39 -87 hhcurveto
            -96 -39 60 59 4 hvcurveto
            -90 hlineto
            -118 -13 93 -75 137 hhcurveto
            return
          </CharString>
          <CharString index="44">
            -110 -18 -85 -78 -112 hhcurveto
            -110 -67 75 105 19 hvcurveto
            return
          </CharString>
          <CharString index="45">
            -105 callsubr
            118 hlineto
            -51 -287 rlineto
            -118 -22 67 -82 119 hhcurveto
            122 75 85 115 20 hvcurveto
            51 287 rlineto
            return
          </CharString>
          <CharString index="46">
            rmoveto
            -41 callsubr
            152 callsubr
            return
          </CharString>
          <CharString index="47">
            371 -1 109 -108 110 -90 -21 22 -21 561 136 0 -20 hstemhm
            95 930 hintmask 00010110
            95 697 rmoveto
            hintmask 00101010
            72 -698 102 1 266 561 rlineto
            hintmask 00010110
            63 -561 rlineto
            102 hlineto
            325 697 rlineto
            -98 hlineto
            hintmask 01000110
            -256 -587 -56 587 rlineto
            -103 hlineto
            hintmask 10000110
            -271 -589 -48 589 rlineto
            return
          </CharString>
          <CharString index="48">
            -55 callgsubr
            123 callsubr
            -101 423 callsubr
            return
          </CharString>
          <CharString index="49">
            -48 callgsubr
            endchar
          </CharString>
          <CharString index="50">
            70 -56 callgsubr
            return
          </CharString>
          <CharString index="51">
            -73 -13 57 -27 60 hhcurveto
            27 28 6 8 25 hvcurveto
            10 60 rlineto
            -8 -24 -25 -5 -19 hhcurveto
            -35 -20 17 31 5 hvcurveto
            5 25 19 23 49 22 return
          </CharString>
          <CharString index="52">
            rmoveto
            29 27 23 29 5 hvcurveto
            29 6 -20 24 -29 hhcurveto
            -29 -28 -24 -29 -5 hvcurveto
            -29 -5 363 callsubr
            endchar
          </CharString>
          <CharString index="53">
            -19 callgsubr
            83 hlineto
            return
          </CharString>
          <CharString index="54">
            hlineto
            -78 callsubr
            return
          </CharString>
          <CharString index="55">
            269 callsubr
            -19 46 -44 35 -78 1 rlinecurve
            -108 2 -97 -75 -20 597 callgsubr
            24 -66 49 -36 rrcurveto
            return
          </CharString>
          <CharString index="56">
            -101 -40 -12 callgsubr
            -46 -263 rlineto
            -77 -20 -60 -62 -90 hhcurveto
            431 99 callsubr
            return
          </CharString>
          <CharString index="57">
            280 callgsubr
            127 5 return
          </CharString>
          <CharString index="58">
            -69 callgsubr
            333 callsubr
            return
          </CharString>
          <CharString index="59">
            59 -18 -51 45 -92 hhcurveto
            return
          </CharString>
          <CharString index="60">
            -12 -68 rlineto
            40 hlineto
            55 33 -20 -27 17 hvcurveto
            -5 3 vlineto
            11 -22 3 -27 -5 -26 rrcurveto
            -76 -13 -59 -52 -82 hhcurveto
            -80 -48 55 76 13 hvcurveto
            -79 hlineto
            -121 -21 78 -82 130 hhcurveto
            return
          </CharString>
          <CharString index="61">
            rlineto
            -82 callgsubr
            return
          </CharString>
          <CharString index="62">
            97 17 80 60 84 hhcurveto
            return
          </CharString>
          <CharString index="63">
            rlineto
            83 69 callsubr
            return
          </CharString>
          <CharString index="64">
            89 65 44 59 39 hvcurveto
            return
          </CharString>
          <CharString index="65">
            123 22 -94 48 -104 hhcurveto
            -44 hlineto
            -56 -48 21 62 11 hvcurveto
            return
          </CharString>
          <CharString index="66">
            85 14 67 55 85 hhcurveto
            86 46 -55 -85 -15 hvcurveto
            -85 -15 -66 -55 -86 hhcurveto
            return
          </CharString>
          <CharString index="67">
            90 callsubr
            132 hhcurveto
            return
          </CharString>
          <CharString index="68">
            -3 17 17 -2 19 hhcurveto
            124 105 75 323 callsubr
            127 22 -75 77 -127 hhcurveto
            -128 -102 51 callsubr
            -51 -34 -57 -46 -83 hhcurveto
            -7 callgsubr
            endchar
          </CharString>
          <CharString index="69">
            -33 callgsubr
            endchar
          </CharString>
          <CharString index="70">
            -9 callgsubr
            hstemhm
            return
          </CharString>
          <CharString index="71">
            hlineto
            -80 callgsubr
            return
          </CharString>
          <CharString index="72">
            hlineto
            162 callgsubr
            return
          </CharString>
          <CharString index="73">
            rmoveto
            -148 446 callsubr
            100 80 53 59 44 hvcurveto
            -20 -115 rlineto
            -117 -21 -84 -62 -97 hhcurveto
            -90 -57 45 66 -8 hvcurveto
            -91 hlineto
            -117 -3 91 -73 144 hhcurveto
            160 120 107 151 27 hvcurveto
            return
          </CharString>
          <CharString index="74">
            -71 callsubr
            57 return
          </CharString>
          <CharString index="75">
            hhcurveto
            -43 callsubr
            return
          </CharString>
          <CharString index="76">
            hstemhm
            34 96 hintmask 10101100
            -13 callgsubr
            hintmask 01011100
            57 callsubr
            hintmask 10101100
            57 -22 -60 52 -102 hhcurveto
            -148 -101 callgsubr
            return
          </CharString>
          <CharString index="77">
            34 417 callsubr
            -35 480 callsubr
            35 hhcurveto
            return
          </CharString>
          <CharString index="78">
            -119 -20 -70 -31 -79 hhcurveto
            -35 hlineto
            -28 -156 rlineto
            return
          </CharString>
          <CharString index="79">
            -18 -102 75 -43 86 -2 rrcurveto
            53 hlineto
            91 42 -42 -67 -12 hvcurveto
            -53 -9 -43 -45 -83 hhcurveto
            -94 -39 53 62 3 hvcurveto
            return
          </CharString>
          <CharString index="80">
            670 -88 callsubr
            return
          </CharString>
          <CharString index="81">
            117 670 rlineto
            return
          </CharString>
          <CharString index="82">
            452 callgsubr
            94 392 callsubr
            return
          </CharString>
          <CharString index="83">
            -84 callsubr
            -225 rlineto
            -152 -27 return
          </CharString>
          <CharString index="84">
            268 rmoveto
            19 callgsubr
            return
          </CharString>
          <CharString index="85">
            42 34 35 52 13 75 rrcurveto
            return
          </CharString>
          <CharString index="86">
            -124 -22 71 -101 148 hhcurveto
            131 87 81 85 27 hvcurveto
            -80 hlineto
            -46 -21 -55 -50 -82 hhcurveto
            -97 -43 65 85 16 hvcurveto
            return
          </CharString>
          <CharString index="87">
            rmoveto
            30 5 -19 23 -29 hhcurveto
            -30 -27 -23 -30 -5 hvcurveto
            -29 -5 363 callsubr
            29 27 23 29 5 hvcurveto
            return
          </CharString>
          <CharString index="88">
            hvcurveto
            -6 callsubr
            return
          </CharString>
          <CharString index="89">
            -28 callgsubr
            298 callsubr
            return
          </CharString>
          <CharString index="90">
            -121 -21 -103 -82 -117 hhcurveto
            -84 -60 39 75 13 hvcurveto
            61 10 54 43 92 hhcurveto
            53 hlineto
            12 68 rlineto
            -67 hlineto
            -89 -46 45 77 15 hvcurveto
            return
          </CharString>
          <CharString index="91">
            -2 -13 -1 -15 1 -13 rrcurveto
            83 hlineto
            -1 14 1 13 2 11 rrcurveto
            return
          </CharString>
          <CharString index="92">
            172 -276 -36 118 vvcurveto
            50 47 31 65 71 46 -39 -60 -7 vhcurveto
            87 hlineto
            103 13 -85 69 -119 hhcurveto
            -122 -87 -63 -94 hvcurveto
            -179 277 37 -112 vvcurveto
            -53 -53 -29 -72 -76 -40 41 56 5 vhcurveto
            -89 hlineto
            return
          </CharString>
          <CharString index="93">
            46 callgsubr
            465 hlineto
            return
          </CharString>
          <CharString index="94">
            108 20 -78 62 -101 hhcurveto
            -106 -99 -64 -110 -18 hvcurveto
            -17 -98 60 -59 75 -19 -94 -44 -98 -48 -20 -113 rrcurveto
            -95 -17 58 -69 104 hhcurveto
            82 52 47 29 18 hvcurveto
            return
          </CharString>
          <CharString index="95">
            -34 -194 rlineto
            82 hlineto
            55 318 rlineto
            -76 hlineto
            return
          </CharString>
          <CharString index="96">
            -20 -112 rlineto
            -39 hlineto
            -164 -146 -88 -183 -32 hvcurveto
            -167 -30 114 -112 171 hhcurveto
            147 103 78 115 21 hvcurveto
            98 17 -60 68 -97 hhcurveto
            return
          </CharString>
          <CharString index="97">
            131 -53 callsubr
            return
          </CharString>
          <CharString index="98">
            26 -20 76 288 69 253 76 hstemhm
            40 89 -8 481 -132 90 hintmask 11101000
            211 384 rmoveto
            -85 -25 -65 -65 -17 -95 rrcurveto
            hintmask 11110100
            -135 -24 89 -84 152 hhcurveto
            153 118 84 135 25 hvcurveto
            16 94 -42 65 -78 26 77 27 55 60 14 78 rrcurveto
            hintmask 11101000
            106 19 -66 87 -156 hhcurveto
            -157 -96 -86 -107 -19 hvcurveto
            -14 -80 33 -56 68 -29 rrcurveto
            hintmask 11110100
            171 282 rmoveto
            91 51 -45 -82 -14 hvcurveto
            -75 -14 -69 -51 -89 hhcurveto
            -89 -52 50 75 13 hvcurveto
            84 15 68 44 89 hhcurveto
            -57 -322 rmoveto
            95 65 -45 -97 -18 hvcurveto
            -88 -15 -74 -58 -103 hhcurveto
            -104 -55 57 89 16 hvcurveto
            99 17 83 43 93 hhcurveto
            endchar
          </CharString>
          <CharString index="99">
            rmoveto
            -26 hlineto
            83 -7 -57 58 -96 hhcurveto
            -89 -61 -44 -56 -35 458 callsubr
            549 155 callsubr
            -102 return
          </CharString>
          <CharString index="100">
            -88 -47 45 77 16 hvcurveto
            57 9 48 46 60 hhcurveto
            69 28 -50 -72 -19 hvcurveto
            64 hlineto
            return
          </CharString>
          <CharString index="101">
            238 callsubr
            83 -99 callsubr
            return
          </CharString>
          <CharString index="102">
            58 548 rmoveto
            125 -542 -155 -264 rlineto
            95 hlineto
            472 806 rlineto
            -94 hlineto
            -249 -442 -93 442 rlineto
            return
          </CharString>
          <CharString index="103">
            670 rlineto
            132 -53 callsubr
            return
          </CharString>
          <CharString index="104">
            119 670 rlineto
            return
          </CharString>
          <CharString index="105">
            hhcurveto
            76 60 32 50 40 hvcurveto
            -49 -279 rlineto
            83 54 callgsubr
          </CharString>
          <CharString index="106">
            494 hmoveto
            96 hlineto
            -129 693 rlineto
            -105 hlineto
            -374 -693 rlineto
            96 hlineto
            return
          </CharString>
          <CharString index="107">
            21 119 -45 85 -87 24 24 133 187 callgsubr
            return
          </CharString>
          <CharString index="108">
            hhcurveto
            91 69 43 60 43 hvcurveto
            return
          </CharString>
          <CharString index="109">
            -59 -46 22 60 11 hvcurveto
            69 12 71 15 53 119 callgsubr
            return
          </CharString>
          <CharString index="110">
            60 -20 -66 33 -102 hhcurveto
            -173 hlineto
            -123 -101 -65 -124 -22 hvcurveto
            -121 -21 81 -77 113 189 callgsubr
            53 hlineto
            93 32 -40 -49 -4 hvcurveto
            -24 -134 rlineto
            10 callsubr
            return
          </CharString>
          <CharString index="111">
            93 callgsubr
            -91 rrcurveto
            -119 -20 94 -59 131 hhcurveto
            return
          </CharString>
          <CharString index="112">
            512 hmoveto
            97 548 rlineto
            -91 hlineto
            -54 -304 rlineto
            3 vlineto
            return
          </CharString>
          <CharString index="113">
            hhcurveto
            72 58 32 50 39 hvcurveto
            return
          </CharString>
          <CharString index="114">
            88 125 16 hvcurveto
            return
          </CharString>
          <CharString index="115">
            127 23 104 61 117 hhcurveto
            100 hlineto
            return
          </CharString>
          <CharString index="116">
            rlineto
            84 -87 callsubr
          </CharString>
          <CharString index="117">
            -127 -22 62 382 callgsubr
            return
          </CharString>
          <CharString index="118">
            373 callgsubr
            -62 -114 -19 hvcurveto
            return
          </CharString>
          <CharString index="119">
            -149 80 callsubr
          </CharString>
          <CharString index="120">
            49 22 54 53 85 hhcurveto
            101 36 -77 -86 -16 hvcurveto
            -88 -15 -64 -76 -100 hhcurveto
            -83 -36 50 52 -5 hvcurveto
            -79 hlineto
            -92 -3 62 -82 132 hhcurveto
            return
          </CharString>
          <CharString index="121">
            160 21 -21 99 70 194 61 246 70 -63 72 hstemhm
            72 82 -33 76 hintmask 11110100
            595 hmoveto
            508 callsubr
            -63 -361 rlineto
            -130 -23 -109 -80 -114 hhcurveto
            -135 568 callgsubr
            149 117 62 139 25 hvcurveto
            hintmask 11101010
            108 19 -61 77 -114 hhcurveto
            -136 -84 -102 -129 -2 hvcurveto
            76 hlineto
            88 -1 49 71 86 hhcurveto
            69 31 441 callsubr
            -21 -108 -26 -102 hhcurveto
            -98 hlineto
            -6 -18 -4 -17 -3 -18 rrcurveto
            hintmask 11110100
            return
          </CharString>
          <CharString index="122">
            -166 -26 91 -107 159 hhcurveto
            105 76 46 59 46 hvcurveto
            -38 -217 -75 callgsubr
          </CharString>
          <CharString index="123">
            -150 -27 84 -92 133 hhcurveto
            91 70 43 61 42 hvcurveto
            -35 -200 rlineto
            82 547 callgsubr
            -646 -105 callsubr
            433 hlineto
            -38 -213 rlineto
            62 -21 -57 44 -95 hhcurveto
            -90 -78 -40 -69 -49 584 callsubr
            return
          </CharString>
          <CharString index="124">
            -63 21 callsubr
            return
          </CharString>
          <CharString index="125">
            150 697 rmoveto
            532 callsubr
            91 hlineto
            124 697 rlineto
            return
          </CharString>
          <CharString index="126">
            149 hhcurveto
            26 hlineto
            312 callgsubr
            return
          </CharString>
          <CharString index="127">
            30 -2 76 328 77 183 76 hstem
            73 79 329 89 vstem
            511 551 rmoveto
            84 hlineto
            101 6 -55 86 -137 hhcurveto
            -183 -98 -140 -227 -40 hvcurveto
            -219 -39 24 -154 213 hhcurveto
            159 97 108 132 23 hvcurveto
            152 27 -75 89 -135 hhcurveto
            -86 -86 -40 -71 -44 hvcurveto
            215 37 76 79 115 hhcurveto
            82 33 -41 -70 2 hvcurveto
            -162 -149 rmoveto
            105 41 -65 -102 -18 hvcurveto
            -98 -17 -71 -63 -94 hhcurveto
            -114 -42 75 96 17 hvcurveto
            108 19 92 49 82 hhcurveto
            endchar
          </CharString>
          <CharString index="128">
            50 93 16 hvcurveto
            84 15 72 27 callsubr
            return
          </CharString>
          <CharString index="129">
            69 0 226 -71 71 hstemhm
            -18 608 26 callgsubr
            return
          </CharString>
          <CharString index="130">
            -78 -38 -34 -41 -7 -44 240 callgsubr
            return
          </CharString>
          <CharString index="131">
            -63 callsubr
            8 callsubr
            return
          </CharString>
          <CharString index="132">
            420 callsubr
            -155 -119 -73 -171 -30 hvcurveto
            -166 -30 99 -87 151 hhcurveto
            29 495 callsubr
            -122 530 callsubr
            22 78 58 115 hhcurveto
            110 32 -67 -47 -4 hvcurveto
            -17 -101 rlineto
            return
          </CharString>
          <CharString index="133">
            rmoveto
            -91 hlineto
            -98 -554 -268 554 rlineto
            -91 hlineto
            -124 -698 rlineto
            91 hlineto
            99 555 267 -555 rlineto
            91 hlineto
            return
          </CharString>
          <CharString index="134">
            64 96 hhcurveto
            35 hlineto
            -1 callgsubr
            return
          </CharString>
          <CharString index="135">
            292 callsubr
            58 -26 322 callgsubr
            return
          </CharString>
          <CharString index="136">
            53 105 hhcurveto
            148 hlineto
            32 182 rlineto
            return
          </CharString>
          <CharString index="137">
            64 callgsubr
            29 162 return
          </CharString>
          <CharString index="138">
            rmoveto
            29 5 -18 23 -30 hhcurveto
            -29 -27 -23 -29 -5 hvcurveto
            -28 -5 18 -23 30 hhcurveto
            29 27 23 28 5 hvcurveto
            95 277 -78 callgsubr
            -712 -105 callsubr
            412 154 callsubr
            -120 582 callgsubr
            return
          </CharString>
          <CharString index="139">
            -17 -97 53 -54 63 -15 rrcurveto
            -3 vlineto
            return
          </CharString>
          <CharString index="140">
            -42 callsubr
            50 callsubr
            return
          </CharString>
          <CharString index="141">
            388 1 rmoveto
            92 17 72 65 91 hhcurveto
            89 53 -62 -96 -16 hvcurveto
            -91 -16 -77 -61 -88 hhcurveto
            -91 -50 63 90 16 hvcurveto
            return
          </CharString>
          <CharString index="142">
            -84 19 callsubr
            return
          </CharString>
          <CharString index="143">
            -68 67 67 65 136 62 -62 403 -314 73 -19 65 125 70 hstemhm
            43 85 336 83 -64 64 349 callgsubr
            hintmask 1010010111010000
            690 70 rmoveto
            109 callsubr
            hintmask 1010100011010000
            -28 callgsubr
            hintmask 1010001111011000
            -52 callsubr
            hintmask 1010010111010000
            -51 -34 -59 -46 -80 hhcurveto
            return
          </CharString>
          <CharString index="144">
            -143 -25 83 -89 123 151 callgsubr
            return
          </CharString>
          <CharString index="145">
            182 rmoveto
            -127 -61 94 125 25 hvcurveto
            1 1 2 2 vvcurveto
            122 6 84 60 20 115 209 callgsubr
            -95 -77 -113 387 callsubr
            return
          </CharString>
          <CharString index="146">
            -65 -11 -53 -57 -76 hhcurveto
            -72 -35 50 61 11 hvcurveto
            17 91 88 33 92 42 rrcurveto
            return
          </CharString>
          <CharString index="147">
            -75 -426 rlineto
            84 52 callsubr
            return
          </CharString>
          <CharString index="148">
            rmoveto
            -87 -57 112 callsubr
            return
          </CharString>
          <CharString index="149">
            58 332 rlineto
            77 17 57 78 103 hhcurveto
            83 237 callsubr
            -101 -18 -74 -58 -81 hhcurveto
            -14 -16 1 3 -11 hvcurveto
            -12 -66 rlineto
            -5 18 21 -2 22 hhcurveto
            120 102 81 146 27 hvcurveto
            135 24 -75 95 -121 hhcurveto
            -87 -63 -44 -58 -37 hvcurveto
            37 213 rlineto
            478 -36 callsubr
            -952 -105 callsubr
            394 510 callsubr
            -88 -139 -24 hvcurveto
            return
          </CharString>
          <CharString index="150">
            23 -2 77 336 78 155 80 hstem
            480 88 vstem
            600 724 rmoveto
            -435 hlineto
            -72 -408 rlineto
            86 hlineto
            57 34 59 38 74 hhcurveto
            105 43 -60 -103 -18 hvcurveto
            -99 -18 -63 -74 -110 hhcurveto
            -84 -52 45 76 -4 hvcurveto
            -88 hlineto
            -117 -3 73 -81 144 hhcurveto
            169 98 112 140 25 hvcurveto
            112 20 -35 127 -176 hhcurveto
            -71 -69 -32 -41 -37 hvcurveto
            40 228 rlineto
            352 hlineto
            endchar
          </CharString>
          <CharString index="151">
            51 hlineto
            43 19 -12 -31 -6 hvcurveto
            -32 -6 -23 -12 -43 hhcurveto
            -97 hlineto
            -10 -59 rlineto
            115 hlineto
            124 callsubr
            return
          </CharString>
          <CharString index="152">
            23 0 83 559 83 hstem
            62 90 350 90 vstem
            76 363 rmoveto
            -204 -36 23 -159 200 hhcurveto
            200 79 159 204 36 hvcurveto
            203 36 -23 159 -200 hhcurveto
            -200 -79 -159 -203 -36 hvcurveto
            413 hmoveto
            -150 -27 -42 -130 -143 hhcurveto
            -142 4 130 150 26 hvcurveto
            149 26 43 130 143 hhcurveto
            142 -4 -130 -149 -26 hvcurveto
            endchar
          </CharString>
          <CharString index="153">
            570 callgsubr
            59 -18 -51 45 -92 hhcurveto
            -125 -104 -88 246 callgsubr
            hintmask 1100010110000000
            -94 callgsubr
            return
          </CharString>
          <CharString index="154">
            444 474 rmoveto
            13 74 rlineto
            -368 hlineto
            -13 -74 rlineto
            264 hlineto
            -337 -399 -13 -75 rlineto
            373 hlineto
            14 75 rlineto
            -269 hlineto
            return
          </CharString>
          <CharString index="155">
            142 callgsubr
            70 hhcurveto
            90 257 callgsubr
            return
          </CharString>
          <CharString index="156">
            66 17 55 83 99 hhcurveto
            82 47 -59 -82 -15 hvcurveto
            1 hlineto
            -24 -135 rlineto
            return
          </CharString>
          <CharString index="157">
            68 13 67 15 56 hhcurveto
            170 hlineto
            33 181 rlineto
            return
          </CharString>
          <CharString index="158">
            -77 -127 -22 hvcurveto
            -14 -79 25 -60 52 -34 rrcurveto
            return
          </CharString>
          <CharString index="159">
            hlineto
            -26 callsubr
            return
          </CharString>
          <CharString index="160">
            40 97 callsubr
            return
          </CharString>
          <CharString index="161">
            62 -21 552 callsubr
            -107 -83 -134 -27 hvcurveto
            -118 -37 -82 -60 -120 hhcurveto
            -81 -69 32 80 15 hvcurveto
            16 callgsubr
            -88 -47 45 77 16 hvcurveto
            return
          </CharString>
          <CharString index="162">
            4 callgsubr
            rrcurveto
            return
          </CharString>
          <CharString index="163">
            rmoveto
            96 16 76 62 88 hhcurveto
            91 50 -65 -92 -16 hvcurveto
            -90 -16 -73 -63 -90 hhcurveto
            -88 -55 61 91 17 hvcurveto
            return
          </CharString>
          <CharString index="164">
            -19 -102 rlineto
            92 hlineto
            97 548 496 callgsubr
            return
          </CharString>
          <CharString index="165">
            -147 -26 57 -97 135 6 callsubr
            return
          </CharString>
          <CharString index="166">
            -38 -218 rlineto
            -99 201 -20 callgsubr
            return
          </CharString>
          <CharString index="167">
            hlineto
            -118 -670 rlineto
            return
          </CharString>
          <CharString index="168">
            23 callgsubr
            -153 -27 83 -90 152 4 4 0 4 hhcurveto
            -163 -138 -1 -5 rlineto
            92 hlineto
            237 206 28 22 24 26 18 29 rlinecurve
            -3 12 13 -1 13 hhcurveto
            76 54 607 callsubr
            -38 -218 rlineto
            return
          </CharString>
          <CharString index="169">
            -70 callgsubr
            411 451 callsubr
            -33 -107 -18 hvcurveto
            return
          </CharString>
          <CharString index="170">
            -44 callsubr
            endchar
          </CharString>
          <CharString index="171">
            444 callsubr
            -89 callsubr
            return
          </CharString>
          <CharString index="172">
            -39 callgsubr
            153 callsubr
            124 hhcurveto
            return
          </CharString>
          <CharString index="173">
            rmoveto
            -59 -40 40 272 callgsubr
            54 41 69 hhcurveto
            93 221 callgsubr
            return
          </CharString>
          <CharString index="174">
            502 callgsubr
            352 hlineto
            12 68 rlineto
            return
          </CharString>
          <CharString index="175">
            -49 -8 -26 -52 -67 hhcurveto
            -62 return
          </CharString>
          <CharString index="176">
            hlineto
            -3 callsubr
            return
          </CharString>
          <CharString index="177">
            293 241 callsubr
            -1039 193 callgsubr
            83 54 -61 -96 -17 hvcurveto
            return
          </CharString>
          <CharString index="178">
            366 callsubr
            -16 -92 -46 callsubr
            return
          </CharString>
          <CharString index="179">
            hlineto
            -53 -299 rlineto
            1 vlineto
            -113 -19 -96 -77 return
          </CharString>
          <CharString index="180">
            134 25 -76 95 -120 hhcurveto
            -87 -63 -44 -58 -38 hvcurveto
            38 213 rlineto
            382 -53 callsubr
            -952 570 callgsubr
            59 -18 -51 45 -92 hhcurveto
            return
          </CharString>
          <CharString index="181">
            263 30 callsubr
            return
          </CharString>
          <CharString index="182">
            136 78 91 128 18 hvcurveto
            return
          </CharString>
          <CharString index="183">
            71 224 -37 callsubr
            92 82 275 86 692 85 hintmask 1001101111000000
            67 callgsubr
            253 -242 rlineto
            -46 -22 -50 -54 -86 hhcurveto
            604 407 309 callgsubr
            -96 -83 -52 -87 -45 hvcurveto
            -265 250 rlineto
            650 588 callsubr
            return
          </CharString>
          <CharString index="184">
            -30 8 76 566 78 hstem
            464 92 vstem
            13 73 rmoveto
            -12 -65 rlineto
            482 hlineto
            13 76 rlineto
            -344 hlineto
            148 105 221 153 31 175 rrcurveto
            131 23 -74 80 -136 hhcurveto
            -130 -112 -80 -154 -33 hvcurveto
            88 hlineto
            91 21 59 65 93 hhcurveto
            99 24 -61 -76 -13 hvcurveto
            -25 -143 -206 -144 -217 -153 rrcurveto
            endchar
          </CharString>
          <CharString index="185">
            555 rmoveto
            -85 -62 -43 -58 -37 154 callgsubr
            472 hlineto
            -12 -69 -19 -103 -58 -44 -85 -10 rlinecurve
            63 -15 -48 48 -89 hhcurveto
            412 callgsubr
            return
          </CharString>
          <CharString index="186">
            -135 -24 66 609 callgsubr
            75 callsubr
            return
          </CharString>
          <CharString index="187">
            -101 callgsubr
            endchar
          </CharString>
          <CharString index="188">
            102 0 70 553 74 hstem
            587 94 vstem
            367 697 rmoveto
            -217 441 callgsubr
            217 hlineto
            229 164 131 216 38 hvcurveto
            216 39 -118 134 -228 hhcurveto
            -111 -627 rmoveto
            -126 hlineto
            98 553 rlineto
            126 hlineto
            181 76 -106 -170 -30 hvcurveto
            -170 -30 -113 -107 -182 hhcurveto
            return
          </CharString>
          <CharString index="189">
            262 254 rmoveto
            -81 callsubr
            return
          </CharString>
          <CharString index="190">
            49 callgsubr
            -729 hlineto
            -13 -70 rlineto
            323 168 callgsubr
            return
          </CharString>
          <CharString index="191">
            570 callgsubr
            295 callgsubr
            return
          </CharString>
          <CharString index="192">
            291 callsubr
            157 hhcurveto
            114 82 66 78 45 hvcurveto
            -3 17 17 -2 19 hhcurveto
            return
          </CharString>
          <CharString index="193">
            191 callsubr
            -147 -132 -70 -159 -28 hvcurveto
            return
          </CharString>
          <CharString index="194">
            -100 callgsubr
            60 338 rlineto
            return
          </CharString>
          <CharString index="195">
            121 19 -63 78 -111 hhcurveto
            -107 -66 -76 -71 -30 hvcurveto
            -2 hlineto
            69 -5 -39 78 -104 hhcurveto
            -122 -98 -79 -147 -25 hvcurveto
            -139 -23 64 -109 156 hhcurveto
            9 11 168 callsubr
            -83 callsubr
            -41 74 96 17 hvcurveto
            94 16 57 63 90 hhcurveto
            87 22 -76 -107 -15 hvcurveto
            return
          </CharString>
          <CharString index="196">
            258 callgsubr
            -71 hhcurveto
            -65 -32 48 68 8 hvcurveto
            1 4 0 4 1 4 rrcurveto
            113 20 -60 125 -173 hhcurveto
            -149 -118 -94 -143 -25 hvcurveto
            return
          </CharString>
          <CharString index="197">
            -127 -22 62 -93 return
          </CharString>
          <CharString index="198">
            172 callsubr
            70 19 56 80 92 hhcurveto
            68 42 -38 -61 7 hvcurveto
            return
          </CharString>
          <CharString index="199">
            -54 callsubr
            119 670 rlineto
            -10 callsubr
            return
          </CharString>
          <CharString index="200">
            90 callgsubr
            -6 -35 return
          </CharString>
          <CharString index="201">
            157 -2 97 102 25 140 return
          </CharString>
          <CharString index="202">
            -90 -14 -54 -57 -77 hhcurveto
            -88 -28 63 83 15 hvcurveto
            19 110 rlineto
            89 hlineto
            141 120 332 callsubr
            133 25 -81 81 -120 hhcurveto
            return
          </CharString>
          <CharString index="203">
            -4 -10 79 -69 323 -65 65 163 76 return
          </CharString>
          <CharString index="204">
            232 callgsubr
            -14 return
          </CharString>
          <CharString index="205">
            -42 callsubr
            68 13 67 15 56 hhcurveto
            176 hlineto
            11 60 rlineto
            -1 hlineto
            22 121 rlineto
            endchar
          </CharString>
          <CharString index="206">
            402 -78 callgsubr
            return
          </CharString>
          <CharString index="207">
            rmoveto
            -71 -403 rlineto
            -227 hlineto
            388 400 rmoveto
            283 610 callsubr
            -432 hlineto
            -519 -698 rlineto
            100 hlineto
            115 155 rlineto
            266 hlineto
            -27 -155 rlineto
            373 610 callsubr
            -282 hlineto
            43 245 rlineto
            253 -53 callsubr
            -253 hlineto
            endchar
          </CharString>
          <CharString index="208">
            -151 -26 102 -104 156 hhcurveto
            163 172 callgsubr
            return
          </CharString>
          <CharString index="209">
            276 callsubr
            26 146 rlineto
            return
          </CharString>
          <CharString index="210">
            536 callgsubr
            50 hlineto
            -4 -23 rlineto
            -36 -7 -16 -18 -34 hhcurveto
            -7 -42 rlineto
            65 42 35 78 14 hvcurveto
            4 26 2 31 -2 35 rrcurveto
            endchar
          </CharString>
          <CharString index="211">
            236 61 131 60 112 70 hstemhm
            50 81 128 61 -61 325 return
          </CharString>
          <CharString index="212">
            470 callsubr
            -114 582 callgsubr
            return
          </CharString>
          <CharString index="213">
            -154 -28 -139 -91 -175 hhcurveto
            return
          </CharString>
          <CharString index="214">
            hlineto
            -165 -134 -74 -173 return
          </CharString>
          <CharString index="215">
            116 76 292 callgsubr
            return
          </CharString>
          <CharString index="216">
            -105 -52 66 98 18 hvcurveto
            return
          </CharString>
          <CharString index="217">
            -94 callsubr
            483 577 rmoveto
            return
          </CharString>
          <CharString index="218">
            -82 -144 -25 hvcurveto
            return
          </CharString>
          <CharString index="219">
            60 102 18 hvcurveto
            return
          </CharString>
          <CharString index="220">
            594 callsubr
            -123 hhcurveto
            -108 -75 -70 -102 -17 hvcurveto
            -2 -13 -1 -15 -13 vvcurveto
            81 hlineto
            14 0 11 2 12 vhcurveto
            65 12 43 39 56 hhcurveto
            66 20 -50 -79 -14 hvcurveto
            -16 -91 rlineto
            -96 hlineto
            -109 -93 -57 -105 -20 hvcurveto
            -104 -17 64 -70 110 hhcurveto
            return
          </CharString>
          <CharString index="221">
            -83 -14 -60 -71 -90 hhcurveto
            return
          </CharString>
          <CharString index="222">
            14 79 125 callsubr
            54 305 rlineto
            -2 vlineto
            return
          </CharString>
          <CharString index="223">
            rlineto
            83 hlineto
            119 -4 callsubr
            -216 hlineto
            return
          </CharString>
          <CharString index="224">
            118 -4 callsubr
            return
          </CharString>
          <CharString index="225">
            -20 -112 597 callsubr
            21 112 rlineto
            return
          </CharString>
          <CharString index="226">
            32 callsubr
            -60 return
          </CharString>
          <CharString index="227">
            -51 -78 -14 hvcurveto
            -17 -94 rlineto
            return
          </CharString>
          <CharString index="228">
            rmoveto
            -129 -23 -98 -76 -101 hhcurveto
            -99 -74 75 323 callsubr
            127 23 100 76 99 hhcurveto
            101 72 -73 -129 -23 hvcurveto
            endchar
          </CharString>
          <CharString index="229">
            118 21 74 58 93 hhcurveto
            92 50 -57 -112 -19 hvcurveto
            return
          </CharString>
          <CharString index="230">
            117 33 -55 75 -114 hhcurveto
            return
          </CharString>
          <CharString index="231">
            71 58 40 63 11 hvcurveto
            12 66 -47 34 -76 -1 return
          </CharString>
          <CharString index="232">
            rlineto
            -91 hlineto
            -97 -548 rlineto
            91 hlineto
            return
          </CharString>
          <CharString index="233">
            -105 callsubr
            172 hlineto
            -40 -229 rlineto
            -144 -27 57 -95 136 hhcurveto
            -246 311 callgsubr
            14 11 11 12 11 13 rlinecurve
            -50 -283 rlineto
            83 hlineto
            56 316 rlineto
            -1 vlineto
            84 14 60 88 109 hhcurveto
            return
          </CharString>
          <CharString index="234">
            -52 -45 -36 -69 -21 hvcurveto
            endchar
          </CharString>
          <CharString index="235">
            340 callsubr
            55 197 callsubr
            return
          </CharString>
          <CharString index="236">
            -114 -19 74 -83 119 hhcurveto
            109 93 70 114 20 hvcurveto
            return
          </CharString>
          <CharString index="237">
            hlineto
            -17 -24 -12 -28 -5 -32 32 callsubr
            return
          </CharString>
          <CharString index="238">
            rmoveto
            -98 -75 66 112 19 hvcurveto
            8 395 callsubr
            30 233 -242 rcurveline
            -27 -34 -44 -18 -53 hhcurveto
            1050 520 -88 callsubr
            -1311 -105 callsubr
            1096 hlineto
            515 callsubr
            -272 hlineto
            -29 -165 rlineto
            return
          </CharString>
          <CharString index="239">
            91 -1 49 68 87 hhcurveto
            68 31 -49 -61 -11 hvcurveto
            -117 608 callgsubr
            -103 hhcurveto
            -393 hlineto
            -123 -102 -65 -123 -21 hvcurveto
            -118 -21 78 -81 113 hhcurveto
            112 93 70 114 20 hvcurveto
            11 59 -16 45 -27 30 rrcurveto
            return
          </CharString>
          <CharString index="240">
            -70 callgsubr
            418 hlineto
            -21 391 callgsubr
            -95 -75 -41 -85 -15 hvcurveto
            return
          </CharString>
          <CharString index="241">
            80 20 58 80 104 hhcurveto
            return
          </CharString>
          <CharString index="242">
            21 119 -58 83 -96 21 23 127 rcurveline
            268 -36 callsubr
            -1050 -70 callgsubr
            701 hlineto
            -22 -122 -91 -10 -67 -56 -40 -71 rlinecurve
            116 callgsubr
            return
          </CharString>
          <CharString index="243">
            -105 -18 -68 -56 -114 hhcurveto
            -106 hlineto
            -35 -206 rlineto
            -126 -22 60 -90 132 hhcurveto
            120 70 82 120 28 hvcurveto
            1 3 1 5 1 6 rrcurveto
            -81 hlineto
            -3 -16 rlineto
            -76 -13 -48 -52 -70 hhcurveto
            -78 -30 57 82 14 hvcurveto
            return
          </CharString>
          <CharString index="244">
            -89 -62 40 82 14 hvcurveto
            63 12 51 50 104 hhcurveto
            52 hlineto
            13 68 rlineto
            -48 hlineto
            -97 -31 43 77 13 hvcurveto
            13 73 rlineto
            return
          </CharString>
          <CharString index="245">
            92 callsubr
            -131 hlineto
            return
          </CharString>
          <CharString index="246">
            85 201 65 -65 69 214 return
          </CharString>
          <CharString index="247">
            495 488 rmoveto
            return
          </CharString>
          <CharString index="248">
            133 433 callsubr
          </CharString>
          <CharString index="249">
            271 callgsubr
            16 91 rcurveline
            return
          </CharString>
          <CharString index="250">
            451 19 rmoveto
            -126 -63 70 109 20 hvcurveto
            3 1 2 3 vvcurveto
            129 5 81 61 22 134 19 101 rcurveline
            201 hlineto
            -54 -307 rlineto
            -108 -22 -98 -73 -110 hhcurveto
            498 488 -88 callsubr
            return
          </CharString>
          <CharString index="251">
            -47 720 rmoveto
            12 62 rlineto
            70 14 33 74 87 hhcurveto
            85 9 -74 -70 -13 hvcurveto
            return
          </CharString>
          <CharString index="252">
            -118 -21 62 -84 124 hhcurveto
            118 81 84 118 21 hvcurveto
            5 31 rlineto
            return
          </CharString>
          <CharString index="253">
            181 callsubr
            117 return
          </CharString>
          <CharString index="254">
            -75 109 hhcurveto
            118 57 79 96 17 hvcurveto
            37 217 rlineto
            return
          </CharString>
          <CharString index="255">
            84 -92 134 1 callsubr
            return
          </CharString>
          <CharString index="256">
            rmoveto
            20 117 rlineto
            142 -53 callsubr
            return
          </CharString>
          <CharString index="257">
            -139 -25 66 -109 158 hhcurveto
            return
          </CharString>
          <CharString index="258">
            323 callgsubr
            -328 hlineto
            return
          </CharString>
          <CharString index="259">
            -85 -47 55 85 16 hvcurveto
            return
          </CharString>
          <CharString index="260">
            298 callgsubr
            58 return
          </CharString>
          <CharString index="261">
            hlineto
            -21 -121 rlineto
            return
          </CharString>
          <CharString index="262">
            hlineto
            -16 -91 rlineto
            return
          </CharString>
          <CharString index="263">
            -78 -14 -51 -52 378 callsubr
            -84 hlineto
            -26 -147 rlineto
            -124 -23 65 -83 115 hhcurveto
            124 -1 83 84 22 118 11 63 rcurveline
            126 hlineto
            17 13 0 12 hhcurveto
            return
          </CharString>
          <CharString index="264">
            36 322 callsubr
            return
          </CharString>
          <CharString index="265">
            -32 -5 -28 -20 -37 hhcurveto
            -34 -22 16 37 1 hvcurveto
            -71 hlineto
            -68 -8 46 -39 80 hhcurveto
            83 62 44 53 9 hvcurveto
            7 43 -24 28 -33 12 rrcurveto
            2 vlineto
            38 10 31 27 7 41 rrcurveto
            58 10 -49 45 -74 hhcurveto
            return
          </CharString>
          <CharString index="266">
            -11 -52 -37 -62 -66 -26 rlinecurve
            -7 3 -12 -10 rlineto
            -4 -15 -16 -2 -17 hhcurveto
            return
          </CharString>
          <CharString index="267">
            14 235 callsubr
            return
          </CharString>
          <CharString index="268">
            59 100 70 hstemhm
            59 70 371 return
          </CharString>
          <CharString index="269">
            35 -8 79 -50 468 callgsubr
            return
          </CharString>
          <CharString index="270">
            -136 -18 -96 -86 -123 hhcurveto
            -78 -68 37 75 14 241 callgsubr
            return
          </CharString>
          <CharString index="271">
            269 callgsubr
            hintmask 11011110
            253 callsubr
            return
          </CharString>
          <CharString index="272">
            28 159 20 -46 54 -38 83 -2 rlinecurve
            112 -2 88 74 18 112 13 81 -30 54 -53 30 rrcurveto
            return
          </CharString>
          <CharString index="273">
            514 35 callgsubr
            return
          </CharString>
          <CharString index="274">
            68 27 213 callsubr
            return
          </CharString>
          <CharString index="275">
            1 1 12 hvcurveto
            return
          </CharString>
          <CharString index="276">
            -150 rlineto
            93 hlineto
            236 199 20 15 16 18 13 20 rlinecurve
            -36 -206 554 callgsubr
            -89 595 callgsubr
            97 17 81 60 84 hhcurveto
            109 29 -83 -74 -11 hvcurveto
            -2 -9 return
          </CharString>
          <CharString index="277">
            rlineto
            84 54 callgsubr
          </CharString>
          <CharString index="278">
            687 670 588 callgsubr
            -12 -70 rlineto
            433 hlineto
            -19 -110 rlineto
            -79 hlineto
            -146 -112 -64 -125 -23 hvcurveto
            -14 -82 36 -62 58 -29 -67 -27 -52 -59 -13 -76 rrcurveto
            return
          </CharString>
          <CharString index="279">
            207 callsubr
            337 rlineto
            return
          </CharString>
          <CharString index="280">
            152 callsubr
            -186 -270 rmoveto
            109 callsubr
            return
          </CharString>
          <CharString index="281">
            94 callsubr
            rrcurveto
            return
          </CharString>
          <CharString index="282">
            68 196 callsubr
            return
          </CharString>
          <CharString index="283">
            -102 -18 -71 -34 -116 hhcurveto
            -321 hlineto
            -124 -98 -67 -122 -22 hvcurveto
            129 callsubr
            10 58 -15 45 -27 30 rrcurveto
            172 hlineto
            return
          </CharString>
          <CharString index="284">
            129 79 rmoveto
            8 -30 40 -62 107 -1 rrcurveto
            121 71 71 91 16 hvcurveto
            131 24 -98 44 -101 hhcurveto
            -44 hlineto
            -59 -46 22 60 11 hvcurveto
            69 12 69 15 55 hhcurveto
            177 hlineto
            7 37 return
          </CharString>
          <CharString index="285">
            70 rlineto
            -216 hlineto
            -130 -740 rlineto
            endchar
          </CharString>
          <CharString index="286">
            -2 hlineto
            69 -5 -40 76 -107 hhcurveto
            -74 -64 -30 -55 -45 hvcurveto
            53 -23 -49 32 -71 hhcurveto
            -108 -62 -75 -70 -29 hvcurveto
            -2 hlineto
            229 callsubr
            return
          </CharString>
          <CharString index="287">
            -163 -29 96 -88 151 290 callsubr
            return
          </CharString>
          <CharString index="288">
            rmoveto
            -95 254 callsubr
            93 hhcurveto
            return
          </CharString>
          <CharString index="289">
            rmoveto
            -89 199 rlineto
            -83 hlineto
            87 -199 rlineto
            return
          </CharString>
          <CharString index="290">
            281 callgsubr
            56 40 return
          </CharString>
          <CharString index="291">
            -9 72 -63 204 -183 -21 return
          </CharString>
          <CharString index="292">
            -6 -34 0 -34 5 -33 rrcurveto
            return
          </CharString>
          <CharString index="293">
            72 245 70 239 72 return
          </CharString>
          <CharString index="294">
            32 hhcurveto
            31 29 return
          </CharString>
          <CharString index="295">
            -81 22 70 -47 95 1 callsubr
            459 callsubr
            return
          </CharString>
          <CharString index="296">
            rrcurveto
            210 callsubr
            return
          </CharString>
          <CharString index="297">
            85 479 callgsubr
            return
          </CharString>
          <CharString index="298">
            -19 271 callsubr
            return
          </CharString>
          <CharString index="299">
            306 callsubr
            434 callsubr
            -102 423 callsubr
            119 callsubr
            -9 -71 -44 -17 -90 rrcurveto
            return
          </CharString>
          <CharString index="300">
            202 callsubr
            endchar
          </CharString>
          <CharString index="301">
            35 67 hhcurveto
            95 hlineto
            -12 -66 rlineto
            -83 -15 -46 -49 -67 hhcurveto
            205 137 rmoveto
            11 61 rlineto
            return
          </CharString>
          <CharString index="302">
            rmoveto
            208 callgsubr
            return
          </CharString>
          <CharString index="303">
            112 20 hvcurveto
            return
          </CharString>
          <CharString index="304">
            67 90 hhcurveto
            89 return
          </CharString>
          <CharString index="305">
            rmoveto
            109 callsubr
            18 103 rlineto
            95 93 50 152 26 hvcurveto
            298 callsubr
            822 hlineto
            -36 -207 rlineto
            57 -25 322 callgsubr
            -83 -74 -38 -65 -48 hvcurveto
            return
          </CharString>
          <CharString index="306">
            -29 callsubr
            -151 -26 87 -95 157 hhcurveto
            114 82 66 78 45 hvcurveto
            -3 16 17 -2 18 hhcurveto
            59 53 16 31 42 hvcurveto
            return
          </CharString>
          <CharString index="307">
            412 callsubr
            endchar
          </CharString>
          <CharString index="308">
            -77 -106 -21 hvcurveto
            return
          </CharString>
          <CharString index="309">
            59 -21 -64 50 -99 hhcurveto
            154 -282 rmoveto
            -129 -23 -99 -75 -100 hhcurveto
            -100 -72 76 323 callsubr
            129 22 99 73 100 hhcurveto
            100 73 -76 -127 -23 hvcurveto
            return
          </CharString>
          <CharString index="310">
            rmoveto
            -95 157 callgsubr
            99 17 87 66 94 hhcurveto
            91 49 -59 -66 1 hvcurveto
            -2 -9 -1 -11 -1 -11 rrcurveto
            -3 -1 -4 -1 -3 vhcurveto
            -77 -18 -63 -89 -115 hhcurveto
            return
          </CharString>
          <CharString index="311">
            224 callgsubr
            endchar
          </CharString>
          <CharString index="312">
            417 callsubr
            452 callsubr
            return
          </CharString>
          <CharString index="313">
            -98 -48 70 110 20 hvcurveto
            29 162 256 -242 rlineto
            -58 -29 -56 -42 -74 hhcurveto
            return
          </CharString>
          <CharString index="314">
            -94 callgsubr
            59 return
          </CharString>
          <CharString index="315">
            62 120 70 hstemhm
            124 139 callsubr
            return
          </CharString>
          <CharString index="316">
            45 58 46 212 callsubr
            return
          </CharString>
          <CharString index="317">
            185 callgsubr
            107 96 392 callsubr
            return
          </CharString>
          <CharString index="318">
            6 31 rlineto
            -81 hlineto
            -2 -10 -2 -7 -2 -11 rrcurveto
            return
          </CharString>
          <CharString index="319">
            hvcurveto
            -38 -215 -44 callsubr
            return
          </CharString>
          <CharString index="320">
            71 149 callgsubr
            return
          </CharString>
          <CharString index="321">
            139 callsubr
            76 return
          </CharString>
          <CharString index="322">
            -131 -740 rlineto
            91 hlineto
            return
          </CharString>
          <CharString index="323">
            -31 -172 rlineto
            -150 hlineto
            return
          </CharString>
          <CharString index="324">
            rmoveto
            16 91 rlineto
            return
          </CharString>
          <CharString index="325">
            rmoveto
            109 callgsubr
            -631 -70 callgsubr
            418 hlineto
            -38 -214 -21 62 -55 44 -96 1 rlinecurve
            -128 2 -113 -89 -24 -138 -1 -3 rcurveline
            return
          </CharString>
          <CharString index="326">
            281 callsubr
            -223 -38 252 callsubr
            -242 -1 -1 rlineto
            -46 -22 -48 -53 -86 hhcurveto
            431 407 rmoveto
            return
          </CharString>
          <CharString index="327">
            79 125 23 280 callgsubr
            return
          </CharString>
          <CharString index="328">
            143 callgsubr
            80 291 callgsubr
            return
          </CharString>
          <CharString index="329">
            70 hstemhm
            116 71 204 67 return
          </CharString>
          <CharString index="330">
            -75 hlineto
            -45 -248 rlineto
            80 hlineto
            return
          </CharString>
          <CharString index="331">
            -285 21 -21 626 83 hstem
            83 217 vstem
            193 626 rmoveto
            -110 -626 rlineto
            92 hlineto
            125 709 rlineto
            -188 hlineto
            -15 -83 rlineto
            endchar
          </CharString>
          <CharString index="332">
            70 364 callgsubr
            return
          </CharString>
          <CharString index="333">
            76 hhcurveto
            73 43 return
          </CharString>
          <CharString index="334">
            -80 -14 -55 -54 -74 hhcurveto
            -89 -27 64 82 15 hvcurveto
            20 110 rlineto
            89 hlineto
            141 121 72 443 callgsubr
            24 134 -75 78 -125 -1 rrcurveto
            return
          </CharString>
          <CharString index="335">
            499 -368 445 callgsubr
            171 539 callgsubr
            return
          </CharString>
          <CharString index="336">
            69 -5 -40 76 -107 hhcurveto
            -122 -96 111 callsubr
            return
          </CharString>
          <CharString index="337">
            -134 -24 83 -91 127 hhcurveto
            104 84 61 79 38 hvcurveto
            return
          </CharString>
          <CharString index="338">
            360 -78 callgsubr
            return
          </CharString>
          <CharString index="339">
            -70 rlineto
            420 451 callsubr
            -34 -108 -18 hvcurveto
            -17 -99 74 -44 86 -2 rrcurveto
            52 hlineto
            71 66 -24 -85 -15 hvcurveto
            -56 return
          </CharString>
          <CharString index="340">
            -100 callgsubr
            59 return
          </CharString>
          <CharString index="341">
            381 callsubr
            61 -61 225 callsubr
            return
          </CharString>
          <CharString index="342">
            591 callsubr
            -54 -310 rlineto
            -107 -24 return
          </CharString>
          <CharString index="343">
            -70 70 -63 63 -63 72 hstemhm
            return
          </CharString>
          <CharString index="344">
            53 -62 -95 -16 hvcurveto
            return
          </CharString>
          <CharString index="345">
            -38 -216 rlineto
            return
          </CharString>
          <CharString index="346">
            688 -64 rmoveto
            -67 -34 48 82 12 hvcurveto
            2 15 rlineto
            121 20 -62 89 -113 hhcurveto
            -91 -65 -47 -60 -38 hvcurveto
            39 218 rlineto
            860 hlineto
            return
          </CharString>
          <CharString index="347">
            rmoveto
            69 hlineto
            26 11 23 18 36 hhcurveto
            37 19 -21 -31 -6 hvcurveto
            -33 -6 -28 -17 -37 hhcurveto
            -41 hlineto
            -9 -48 rlineto
            43 hlineto
            37 23 -19 -33 -6 hvcurveto
            return
          </CharString>
          <CharString index="348">
            268 -73 callsubr
            return
          </CharString>
          <CharString index="349">
            -12 -74 rlineto
            46 hlineto
            110 27 -79 -70 -12 hvcurveto
            -85 -16 -66 -61 -88 hhcurveto
            -89 -57 64 85 15 hvcurveto
            -79 hlineto
            -132 -24 84 -92 140 hhcurveto
            return
          </CharString>
          <CharString index="350">
            94 rmoveto
            -101 hlineto
            -16 -92 rlineto
            53 hlineto
            -3 -19 rlineto
            -41 -7 -20 -21 -35 hhcurveto
            -8 -46 rlineto
            71 47 39 87 15 hvcurveto
            5 27 1 31 -2 35 rrcurveto
            return
          </CharString>
          <CharString index="351">
            91 hlineto
            15 86 rlineto
            -49 hlineto
            4 23 rlineto
            35 6 17 19 34 hhcurveto
            7 42 rlineto
            -66 -41 -35 -78 -14 hvcurveto
            -5 -26 -2 -31 3 -35 rrcurveto
            endchar
          </CharString>
          <CharString index="352">
            hvcurveto
            -132 329 callgsubr
            endchar
          </CharString>
          <CharString index="353">
            348 385 callsubr
            -32 callgsubr
            return
          </CharString>
          <CharString index="354">
            567 -8 callgsubr
            return
          </CharString>
          <CharString index="355">
            -6 20 -1 22 4 20 rrcurveto
            65 11 39 35 52 hhcurveto
            46 25 -34 -48 -11 hvcurveto
            64 hlineto
            86 21 -38 61 -81 hhcurveto
            -94 -50 -68 -70 -14 hvcurveto
            return
          </CharString>
          <CharString index="356">
            -61 18 56 -37 80 hhcurveto
            111 75 72 135 23 hvcurveto
            14 77 rlineto
            182 513 callsubr
          </CharString>
          <CharString index="357">
            107 callsubr
            453 callsubr
            return
          </CharString>
          <CharString index="358">
            65 136 62 81 65 125 516 callgsubr
            349 callgsubr
            return
          </CharString>
          <CharString index="359">
            30 callsubr
            252 return
          </CharString>
          <CharString index="360">
            478 hmoveto
            444 callsubr
            76 20 57 74 99 hhcurveto
            return
          </CharString>
          <CharString index="361">
            -61 140 callgsubr
            return
          </CharString>
          <CharString index="362">
            hlineto
            -121 -55 66 273 callgsubr
            return
          </CharString>
          <CharString index="363">
            -8 72 -64 211 -190 -21 return
          </CharString>
          <CharString index="364">
            41 65 12 hvcurveto
            return
          </CharString>
          <CharString index="365">
            45 -26 30 rrcurveto
            return
          </CharString>
          <CharString index="366">
            49 23 52 53 87 hhcurveto
            100 36 -71 -79 -14 hvcurveto
            -83 -14 -62 -71 -101 hhcurveto
            -84 -41 52 50 hvcurveto
            -79 hlineto
            -92 -8 72 -82 132 hhcurveto
            return
          </CharString>
          <CharString index="367">
            -36 580 callsubr
            86 43 -6 -173 65 hvcurveto
            80 -83 -32 2 -100 hhcurveto
            -41 hlineto
            -10 -54 rlineto
            43 hlineto
            return
          </CharString>
          <CharString index="368">
            rrcurveto
            275 callgsubr
            return
          </CharString>
          <CharString index="369">
            -70 callgsubr
            117 hlineto
            -36 -212 rlineto
            -114 -22 62 -86 122 hhcurveto
            124 74 85 115 21 hvcurveto
            37 212 rlineto
            return
          </CharString>
          <CharString index="370">
            -98 146 hhcurveto
            129 88 79 88 30 hvcurveto
            -81 hlineto
            -47 -21 -55 -49 -82 hhcurveto
            -97 -42 64 83 15 hvcurveto
            81 15 68 66 93 hhcurveto
            return
          </CharString>
          <CharString index="371">
            -25 callgsubr
            82 29 -60 -80 -7 hvcurveto
            -140 -92 callgsubr
            143 callgsubr
            return
          </CharString>
          <CharString index="372">
            128 callgsubr
            endchar
          </CharString>
          <CharString index="373">
            rmoveto
            -52 -296 rlineto
            72 hlineto
            62 352 rlineto
            -126 hlineto
            -10 -56 rlineto
            return
          </CharString>
          <CharString index="374">
            -120 -22 -76 357 callgsubr
            return
          </CharString>
          <CharString index="375">
            -105 callsubr
            386 hlineto
            -17 -96 rlineto
            return
          </CharString>
          <CharString index="376">
            298 callsubr
            400 hlineto
            -36 -207 return
          </CharString>
          <CharString index="377">
            64 126 516 callgsubr
            return
          </CharString>
          <CharString index="378">
            -110 rlineto
            -72 hlineto
            return
          </CharString>
          <CharString index="379">
            483 577 rmoveto
            return
          </CharString>
          <CharString index="380">
            60 23 129 return
          </CharString>
          <CharString index="381">
            -142 -24 62 -102 157 hhcurveto
            10 11 0 1 14 hvcurveto
            13 73 rlineto
            -1 -12 -10 -1 -8 hhcurveto
            -103 -44 68 103 19 hvcurveto
            90 return
          </CharString>
          <CharString index="382">
            -133 138 callsubr
            return
          </CharString>
          <CharString index="383">
            10 callsubr
            -81 hlineto
            -93 callsubr
            return
          </CharString>
          <CharString index="384">
            hmoveto
            -3 callsubr
            -10 callsubr
            return
          </CharString>
          <CharString index="385">
            39 54 270 callgsubr
            return
          </CharString>
          <CharString index="386">
            71 -270 79 182 80 407 79 -9 -20 return
          </CharString>
          <CharString index="387">
            -20 75 -83 119 hhcurveto
            return
          </CharString>
          <CharString index="388">
            -107 -64 78 105 19 hvcurveto
            return
          </CharString>
          <CharString index="389">
            70 -7 81 623 -20 return
          </CharString>
          <CharString index="390">
            rmoveto
            -72 -1 -47 48 12 75 11 69 62 48 65 5 70 6 52 25 34 39 -35 -198 rcurveline
            -58 -16 -56 -58 -80 hhcurveto
            return
          </CharString>
          <CharString index="391">
            213 -213 342 -195 66 -57 57 -36 -21 23 -21 268 60 19 103 44 362 callgsubr
            -4 756 return
          </CharString>
          <CharString index="392">
            vstem
            204 197 rmoveto
            -62 -38 42 64 12 hvcurveto
            65 12 55 41 68 hhcurveto
            95 hlineto
            -14 -79 rlineto
            -83 -15 -46 -50 -67 hhcurveto
            return
          </CharString>
          <CharString index="393">
            503 callsubr
            101 hhcurveto
            79 46 -55 -88 -10 hvcurveto
            -10 -20 -8 -22 -4 -24 rrcurveto
            return
          </CharString>
          <CharString index="394">
            482 310 57 callgsubr
            return
          </CharString>
          <CharString index="395">
            -51 -34 -57 -46 -83 hhcurveto
            1286 600 -78 callgsubr
            -1541 -70 callgsubr
            288 154 callsubr
            return
          </CharString>
          <CharString index="396">
            -91 -16 -73 -63 -121 hhcurveto
            -119 -52 58 82 14 hvcurveto
            91 16 84 44 96 hhcurveto
            136 hlineto
            31 174 rlineto
            endchar
          </CharString>
          <CharString index="397">
            hhcurveto
            32 hlineto
            312 callgsubr
            -55 67 196 callsubr
            return
          </CharString>
          <CharString index="398">
            -151 -27 88 -95 return
          </CharString>
          <CharString index="399">
            -36 -208 rlineto
            return
          </CharString>
          <CharString index="400">
            26 146 rlineto
            return
          </CharString>
          <CharString index="401">
            41 callgsubr
            -56 431 callgsubr
            return
          </CharString>
          <CharString index="402">
            329 471 callgsubr
            -32 67 106 18 hvcurveto
            41 229 rlineto
            280 hlineto
            -44 -248 rlineto
            -83 -14 -59 -71 -91 hhcurveto
            return
          </CharString>
          <CharString index="403">
            rlineto
            -592 293 callgsubr
            -67 -123 -22 hvcurveto
            -114 -20 75 -82 119 hhcurveto
            109 93 70 273 callgsubr
            return
          </CharString>
          <CharString index="404">
            hlineto
            -60 -344 rlineto
            -221 hlineto
            return
          </CharString>
          <CharString index="405">
            23 131 rlineto
            return
          </CharString>
          <CharString index="406">
            84 21 118 return
          </CharString>
          <CharString index="407">
            rmoveto
            -128 -59 76 117 14 hvcurveto
            -15 1 rlineto
            2 0 3 2 vvcurveto
            2 hlineto
            137 89 74 130 24 hvcurveto
            return
          </CharString>
          <CharString index="408">
            291 callsubr
            157 hhcurveto
            114 82 66 78 45 hvcurveto
            -3 15 17 -2 17 hhcurveto
            75 65 27 49 45 hvcurveto
            return
          </CharString>
          <CharString index="409">
            72 -43 424 callgsubr
            149 71 96 72 111 87 callgsubr
            37 86 return
          </CharString>
          <CharString index="410">
            -77 256 -193 64 213 582 callsubr
            return
          </CharString>
          <CharString index="411">
            -117 -20 100 -63 125 hhcurveto
            117 90 56 92 51 hvcurveto
            return
          </CharString>
          <CharString index="412">
            496 callsubr
            41 525 callgsubr
            return
          </CharString>
          <CharString index="413">
            46 59 hhcurveto
            70 27 -50 -72 -19 hvcurveto
            64 hlineto
            return
          </CharString>
          <CharString index="414">
            hlineto
            -14 -82 rlineto
            47 hlineto
            -2 -18 rlineto
            -36 -7 return
          </CharString>
          <CharString index="415">
            73 66 386 callsubr
            return
          </CharString>
          <CharString index="416">
            -92 0 186 callsubr
            return
          </CharString>
          <CharString index="417">
            rmoveto
            74 488 callsubr
            return
          </CharString>
          <CharString index="418">
            -49 rmoveto
            -90 hlineto
            -15 -82 rlineto
            48 hlineto
            return
          </CharString>
          <CharString index="419">
            533 callgsubr
            -66 hhcurveto
            return
          </CharString>
          <CharString index="420">
            -22 391 callgsubr
            return
          </CharString>
          <CharString index="421">
            hvcurveto
            1 2 0 3 1 return
          </CharString>
          <CharString index="422">
            35 362 callsubr
            return
          </CharString>
          <CharString index="423">
            64 459 callgsubr
            return
          </CharString>
          <CharString index="424">
            50 callgsubr
            -61 -359 rmoveto
            -100 -73 65 196 callsubr
            7 43 return
          </CharString>
          <CharString index="425">
            -93 131 hhcurveto
            128 79 88 125 15 hvcurveto
            -80 hlineto
            -81 -13 -45 -60 -76 hhcurveto
            -81 -30 58 82 14 hvcurveto
            return
          </CharString>
          <CharString index="426">
            8 -23 -27 3 -25 hhcurveto
            -139 -122 -90 -147 -26 hvcurveto
            -151 -27 104 -91 134 hhcurveto
            90 76 38 return
          </CharString>
          <CharString index="427">
            58 rlineto
            -2 -6 -10 0 -5 hhcurveto
            -72 -32 48 71 13 hvcurveto
            65 11 40 46 64 hhcurveto
            60 22 -53 -76 -15 hvcurveto
            return
          </CharString>
          <CharString index="428">
            -30 callsubr
            endchar
          </CharString>
          <CharString index="429">
            -87 -80 -15 hvcurveto
            return
          </CharString>
          <CharString index="430">
            129 23 hvcurveto
            return
          </CharString>
          <CharString index="431">
            -15 -81 35 -60 59 -27 -58 -28 -48 -55 -12 -73 rrcurveto
            -107 -17 65 -76 106 hhcurveto
            65 60 28 51 39 hvcurveto
            return
          </CharString>
          <CharString index="432">
            291 66 143 70 hstem
            26 800 vstem
            813 -27 callsubr
            -788 -105 callsubr
            return
          </CharString>
          <CharString index="433">
            310 callsubr
            -51 -71 -13 hvcurveto
            -70 -12 -62 -53 -72 hhcurveto
            -77 -43 50 71 12 hvcurveto
            return
          </CharString>
          <CharString index="434">
            -69 32 71 -40 105 hhcurveto
            104 80 46 60 46 hvcurveto
            -38 -218 9 callsubr
          </CharString>
          <CharString index="435">
            -150 213 callgsubr
            return
          </CharString>
          <CharString index="436">
            -143 -26 94 -99 147 hhcurveto
            102 82 47 67 50 hvcurveto
            return
          </CharString>
          <CharString index="437">
            70 18 54 81 99 hhcurveto
            82 47 -62 -93 -17 hvcurveto
            1 hlineto
            return
          </CharString>
          <CharString index="438">
            72 444 callgsubr
            return
          </CharString>
          <CharString index="439">
            70 145 27 hvcurveto
            return
          </CharString>
          <CharString index="440">
            29 165 rlineto
            return
          </CharString>
          <CharString index="441">
            hlineto
            14 81 rlineto
            return
          </CharString>
          <CharString index="442">
            rmoveto
            12 65 rlineto
            -5 -17 -29 -5 -30 hhcurveto
            -62 -54 39 72 13 hvcurveto
            59 9 49 40 75 hhcurveto
            28 hlineto
            return
          </CharString>
          <CharString index="443">
            -94 callgsubr
            57 323 rlineto
            return
          </CharString>
          <CharString index="444">
            -70 callgsubr
            1170 hlineto
            347 callsubr
            -81 -72 -37 -64 -48 hvcurveto
            return
          </CharString>
          <CharString index="445">
            hlineto
            515 callsubr
            -271 -69 callgsubr
            return
          </CharString>
          <CharString index="446">
            rmoveto
            15 14 13 14 11 15 -34 -195 rcurveline
            80 547 callgsubr
            return
          </CharString>
          <CharString index="447">
            42 callgsubr
            90 16 return
          </CharString>
          <CharString index="448">
            rmoveto
            -59 -39 41 65 11 hvcurveto
            67 12 55 528 callsubr
            -84 -16 -46 -48 -66 hhcurveto
            return
          </CharString>
          <CharString index="449">
            82 callgsubr
            endchar
          </CharString>
          <CharString index="450">
            405 rmoveto
            -14 -77 rlineto
            399 hlineto
            14 77 rlineto
            endchar
          </CharString>
          <CharString index="451">
            rmoveto
            65 hlineto
            136 227 rlineto
            -102 hlineto
            return
          </CharString>
          <CharString index="452">
            -40 -110 hhcurveto
            -14 hlineto
            -5 -16 -4 -17 return
          </CharString>
          <CharString index="453">
            -171 rlineto
            -271 hlineto
            -29 -165 rlineto
            return
          </CharString>
          <CharString index="454">
            155 callgsubr
            -48 callsubr
            return
          </CharString>
          <CharString index="455">
            62 410 -253 331 callsubr
            return
          </CharString>
          <CharString index="456">
            59 -23 -57 48 -97 hhcurveto
            return
          </CharString>
          <CharString index="457">
            -10 callgsubr
            -693 -105 callsubr
            466 hlineto
            -19 -110 rlineto
            -79 hlineto
            -147 return
          </CharString>
          <CharString index="458">
            hlineto
            -3 -18 rlineto
            -36 -7 -17 462 callsubr
            return
          </CharString>
          <CharString index="459">
            -102 callgsubr
            130 hlineto
            304 callgsubr
            return
          </CharString>
          <CharString index="460">
            rcurveline
            -1 1 -3 -21 -9 -21 -13 -20 rlinecurve
            -196 147 26 19 34 11 37 3 rlinecurve
            endchar
          </CharString>
          <CharString index="461">
            19 -24 hhcurveto
            -24 -21 -19 -23 -4 hvcurveto
            -23 -4 14 -18 24 hhcurveto
            24 21 18 23 4 hvcurveto
            endchar
          </CharString>
          <CharString index="462">
            rlineto
            83 hlineto
            57 327 rlineto
            134 callsubr
            return
          </CharString>
          <CharString index="463">
            -295 rmoveto
            -89 200 rlineto
            -83 hlineto
            86 -200 rlineto
            return
          </CharString>
          <CharString index="464">
            hhcurveto
            -56 hlineto
            -119 -102 -66 -124 -22 hvcurveto
            -116 return
          </CharString>
          <CharString index="465">
            hlineto
            -26 -28 -18 -36 -8 -43 rrcurveto
            return
          </CharString>
          <CharString index="466">
            71 198 31 -31 68 -20 70 return
          </CharString>
          <CharString index="467">
            499 callsubr
            -110 hhcurveto
            return
          </CharString>
          <CharString index="468">
            253 498 callsubr
            return
          </CharString>
          <CharString index="469">
            -9 77 412 77 return
          </CharString>
          <CharString index="470">
            19 -23 30 hhcurveto
            return
          </CharString>
          <CharString index="471">
            57 323 rlineto
            return
          </CharString>
          <CharString index="472">
            -10 58 -27 -21 229 57 126 57 182 56 -9 -20 hstemhm
            86 72 156 297 return
          </CharString>
          <CharString index="473">
            -82 callgsubr
            181 hlineto
            return
          </CharString>
          <CharString index="474">
            rmoveto
            -182 hlineto
            9 callgsubr
            182 hlineto
            -1070 -600 rmoveto
            109 callsubr
            return
          </CharString>
          <CharString index="475">
            122 94 76 117 21 hvcurveto
            5 28 -1 29 -8 25 158 -1 rcurveline
            -57 -327 rlineto
            return
          </CharString>
          <CharString index="476">
            rmoveto
            118 670 rlineto
            131 512 callsubr
          </CharString>
          <CharString index="477">
            397 callsubr
            endchar
          </CharString>
          <CharString index="478">
            -153 -27 104 -104 149 hhcurveto
            endchar
          </CharString>
          <CharString index="479">
            21 -21 96 67 return
          </CharString>
          <CharString index="480">
            72 127 129 71 75 -75 269 -70 70 hstemhm
            52 86 265 47 289 84 return
          </CharString>
          <CharString index="481">
            -147 -26 57 -97 135 231 callgsubr
            return
          </CharString>
          <CharString index="482">
            316 47 rmoveto
            -529 -698 rlineto
            91 hlineto
            528 698 rlineto
            -340 -560 rmoveto
            return
          </CharString>
          <CharString index="483">
            86 16 58 89 109 hhcurveto
            84 52 -67 -121 -22 hvcurveto
            -5 -15 -4 -16 -3 -17 rrcurveto
            return
          </CharString>
          <CharString index="484">
            79 -14 -64 44 -99 hhcurveto
            -127 -99 -77 -127 -22 hvcurveto
            -13 -79 24 -61 51 -34 rrcurveto
            return
          </CharString>
          <CharString index="485">
            -70 hhcurveto
            -68 -32 53 77 14 hvcurveto
            27 151 rlineto
            return
          </CharString>
          <CharString index="486">
            67 hlineto
            40 14 32 24 33 59 21 -65 76 hhcurveto
            return
          </CharString>
          <CharString index="487">
            100 hhcurveto
            147 133 115 170 30 hvcurveto
            return
          </CharString>
          <CharString index="488">
            359 callsubr
            166 70 -61 return
          </CharString>
          <CharString index="489">
            58 -26 322 callgsubr
            -81 -72 -34 -58 -49 hvcurveto
            return
          </CharString>
          <CharString index="490">
            hlineto
            110 5 -63 85 -131 hhcurveto
            return
          </CharString>
          <CharString index="491">
            105 69 235 68 193 70 hstem
            return
          </CharString>
          <CharString index="492">
            99 524 callgsubr
            return
          </CharString>
          <CharString index="493">
            438 callgsubr
            126 70 return
          </CharString>
          <CharString index="494">
            hhcurveto
            140 callsubr
            12 70 rlineto
            return
          </CharString>
          <CharString index="495">
            -170 -30 94 -115 147 hhcurveto
            return
          </CharString>
          <CharString index="496">
            49 277 rlineto
            -71 hlineto
            return
          </CharString>
          <CharString index="497">
            -82 -14 -59 -70 -90 hhcurveto
            return
          </CharString>
          <CharString index="498">
            14 77 rlineto
            163 hlineto
            return
          </CharString>
          <CharString index="499">
            70 114 19 hvcurveto
            return
          </CharString>
          <CharString index="500">
            -7 82 548 82 return
          </CharString>
          <CharString index="501">
            -13 -1 -14 -3 -15 return
          </CharString>
          <CharString index="502">
            43 18 36 26 return
          </CharString>
          <CharString index="503">
            497 callgsubr
            -49 442 callsubr
            -16 72 110 225 callsubr
            return
          </CharString>
          <CharString index="504">
            rcurveline
            51 hlineto
            43 19 -12 -31 -6 hvcurveto
            -32 -6 -23 -12 -43 hhcurveto
            -97 hlineto
            -10 -59 rlineto
            return
          </CharString>
          <CharString index="505">
            -160 -21 89 -103 159 hhcurveto
            103 77 45 59 45 hvcurveto
            238 callsubr
            83 hlineto
            return
          </CharString>
          <CharString index="506">
            446 -446 569 -510 59 587 70 372 callgsubr
            25 76 -24 81 return
          </CharString>
          <CharString index="507">
            335 callgsubr
            10 callgsubr
            return
          </CharString>
          <CharString index="508">
            rmoveto
            109 callgsubr
            -628 -70 callgsubr
            415 535 callsubr
            return
          </CharString>
          <CharString index="509">
            -37 411 callsubr
          </CharString>
          <CharString index="510">
            -35 -6 22 -27 return
          </CharString>
          <CharString index="511">
            21 -21 101 71 return
          </CharString>
          <CharString index="512">
            510 callsubr
            -89 -140 -25 hvcurveto
            return
          </CharString>
          <CharString index="513">
            rmoveto
            -99 -29 -49 callgsubr
            796 hlineto
            -23 -129 rlineto
            return
          </CharString>
          <CharString index="514">
            -95 rlineto
            -139 -112 -60 -146 -26 hvcurveto
            -127 -23 77 -79 131 hhcurveto
            return
          </CharString>
          <CharString index="515">
            95 rlineto
            139 112 60 443 callgsubr
            127 23 -77 79 -131 hhcurveto
            return
          </CharString>
          <CharString index="516">
            53 callgsubr
            -314 72 -29 74 -74 271 -70 70 hstemhm
            43 85 return
          </CharString>
          <CharString index="517">
            565 callgsubr
            -89 hlineto
            68 -175 rlineto
            endchar
          </CharString>
          <CharString index="518">
            hvcurveto
            -132 545 callgsubr
            83 hlineto
            endchar
          </CharString>
          <CharString index="519">
            -68 -385 rlineto
            84 -99 callsubr
            return
          </CharString>
          <CharString index="520">
            -232 484 callsubr
            return
          </CharString>
          <CharString index="521">
            23 -50 callsubr
            81 return
          </CharString>
          <CharString index="522">
            hlineto
            -50 -286 rlineto
            -164 334 callsubr
            return
          </CharString>
          <CharString index="523">
            -53 callsubr
            -215 hlineto
            -64 -361 rlineto
            return
          </CharString>
          <CharString index="524">
            387 callgsubr
            -34 hhcurveto
            return
          </CharString>
          <CharString index="525">
            135 59 119 70 hstem
            return
          </CharString>
          <CharString index="526">
            192 71 407 70 hstem
            return
          </CharString>
          <CharString index="527">
            57 -24 -61 44 -109 hhcurveto
            return
          </CharString>
          <CharString index="528">
            21 493 callgsubr
            return
          </CharString>
          <CharString index="529">
            -21 -3 -6 -20 hvcurveto
            return
          </CharString>
          <CharString index="530">
            -77 -66 -97 -16 hvcurveto
            return
          </CharString>
          <CharString index="531">
            596 670 rmoveto
            return
          </CharString>
          <CharString index="532">
            34 187 rlineto
            return
          </CharString>
          <CharString index="533">
            -91 -16 52 -57 84 hhcurveto
            83 72 57 91 16 hvcurveto
            92 16 -53 56 -82 hhcurveto
            return
          </CharString>
          <CharString index="534">
            473 callgsubr
            202 hlineto
            return
          </CharString>
          <CharString index="535">
            72 0 71 109 461 -361 69 13 66 -39 252 -70 70 hstemhm
            return
          </CharString>
          <CharString index="536">
            -80 hlineto
            465 callgsubr
            return
          </CharString>
          <CharString index="537">
            217 -217 405 -260 72 368 556 callsubr
            hstemhm
            48 85 return
          </CharString>
          <CharString index="538">
            119 hhcurveto
            109 93 71 114 20 hvcurveto
            10 58 -15 46 -27 29 rrcurveto
            return
          </CharString>
          <CharString index="539">
            425 callgsubr
            -51 73 191 70 205 539 callgsubr
            481 82 return
          </CharString>
          <CharString index="540">
            24 -72 92 -120 hhcurveto
            -91 -66 -45 -60 -39 154 callgsubr
            endchar
          </CharString>
          <CharString index="541">
            117 33 -55 75 -113 hhcurveto
            return
          </CharString>
          <CharString index="542">
            rmoveto
            215 callsubr
            return
          </CharString>
          <CharString index="543">
            hvcurveto
            4 25 2 28 -3 30 rrcurveto
            return
          </CharString>
          <CharString index="544">
            hlineto
            -5 -15 -4 -16 -3 -16 rrcurveto
            return
          </CharString>
          <CharString index="545">
            535 callgsubr
            43 return
          </CharString>
          <CharString index="546">
            -49 -279 rlineto
            83 hlineto
            return
          </CharString>
          <CharString index="547">
            hstemhm
            423 callgsubr
            return
          </CharString>
          <CharString index="548">
            -49 -62 -11 hvcurveto
            -116 return
          </CharString>
          <CharString index="549">
            71 246 70 return
          </CharString>
          <CharString index="550">
            61 -15 61 hstemhm
            return
          </CharString>
          <CharString index="551">
            59 337 rlineto
            return
          </CharString>
          <CharString index="552">
            hlineto
            hintmask 00101101
            191 callsubr
            hintmask 00110111
            -74 -71 -18 -38 -55 hvcurveto
            return
          </CharString>
          <CharString index="553">
            -133 -110 -171 -30 hvcurveto
            388 callsubr
            return
          </CharString>
          <CharString index="554">
            114 hhcurveto
            78 68 -12 -75 -14 hvcurveto
            -52 -9 -49 -33 -79 hhcurveto
            -108 return
          </CharString>
          <CharString index="555">
            -84 30 76 -49 110 576 callsubr
            return
          </CharString>
          <CharString index="556">
            rmoveto
            464 callgsubr
            return
          </CharString>
          <CharString index="557">
            72 -11 483 callsubr
            318 596 callsubr
            return
          </CharString>
          <CharString index="558">
            hlineto
            -22 -120 rlineto
            -118 hlineto
            -92 -98 return
          </CharString>
          <CharString index="559">
            -34 480 callsubr
            return
          </CharString>
          <CharString index="560">
            -30 hvcurveto
            -165 -28 103 -84 149 hhcurveto
            return
          </CharString>
          <CharString index="561">
            -41 -13 -33 -23 -32 -58 -23 65 -76 hhcurveto
            return
          </CharString>
          <CharString index="562">
            526 callsubr
            402 return
          </CharString>
          <CharString index="563">
            173 -6 82 228 72 247 82 return
          </CharString>
          <CharString index="564">
            85 58 99 hhcurveto
            97 21 -41 -29 6 hvcurveto
            return
          </CharString>
          <CharString index="565">
            hvcurveto
            599 callsubr
            return
          </CharString>
          <CharString index="566">
            -35 -199 rlineto
            return
          </CharString>
          <CharString index="567">
            -74 -12 -29 -60 -72 hhcurveto
            -72 -27 58 81 13 hvcurveto
            26 151 rlineto
            return
          </CharString>
          <CharString index="568">
            -185 91 59 361 59 100 70 hstem
            59 70 371 67 vstem
            return
          </CharString>
          <CharString index="569">
            -20 -32 593 callgsubr
            41 35 80 15 hvcurveto
            4 25 2 28 return
          </CharString>
          <CharString index="570">
            -74 24 67 -42 90 1 callsubr
            459 callsubr
            return
          </CharString>
          <CharString index="571">
            23 -71 92 -121 hhcurveto
            -90 -66 -45 -59 -39 592 callgsubr
            return
          </CharString>
          <CharString index="572">
            -125 -21 57 -91 121 hhcurveto
            119 60 89 117 14 hvcurveto
            return
          </CharString>
          <CharString index="573">
            rrcurveto
            -68 callsubr
            return
          </CharString>
          <CharString index="574">
            hvcurveto
            -41 -229 rlineto
            endchar
          </CharString>
          <CharString index="575">
            64 137 62 return
          </CharString>
          <CharString index="576">
            60 121 70 return
          </CharString>
          <CharString index="577">
            -22 -121 rlineto
            return
          </CharString>
          <CharString index="578">
            71 213 69 return
          </CharString>
          <CharString index="579">
            -144 -25 85 -93 145 hhcurveto
            109 77 55 70 45 hvcurveto
            return
          </CharString>
          <CharString index="580">
            64 213 60 166 469 callsubr
            hstem
            28 639 vstem
            return
          </CharString>
          <CharString index="581">
            -79 callgsubr
            -249 rlineto
            return
          </CharString>
          <CharString index="582">
            219 308 callgsubr
            658 return
          </CharString>
          <CharString index="583">
            vstem
            247 697 rmoveto
            -65 hlineto
            -136 -227 rlineto
            102 hlineto
            return
          </CharString>
          <CharString index="584">
            742 555 rmoveto
            -85 -62 -43 -58 -37 154 callgsubr
            return
          </CharString>
          <CharString index="585">
            -18 rlineto
            -36 -7 -17 -20 -33 593 callgsubr
            42 35 80 return
          </CharString>
          <CharString index="586">
            -24 -23 -3 -6 -21 hvcurveto
            -740 -105 callsubr
            646 hlineto
            return
          </CharString>
          <CharString index="587">
            -32 -27 -35 -6 hvcurveto
            403 callsubr
            return
          </CharString>
          <CharString index="588" raw="1">
            5543f8de 0a0b  
          </CharString>
          <CharString index="589">
            -102 -18 -69 -66 -114 hhcurveto
            -47 hlineto
            return
          </CharString>
          <CharString index="590">
            -37 callsubr
            43 85 return
          </CharString>
          <CharString index="591">
            241 rcurveline
            134 callgsubr
            return
          </CharString>
          <CharString index="592">
            -130 -22 -109 -80 -115 hhcurveto
            return
          </CharString>
          <CharString index="593">
            61 35 51 38 hvcurveto
            -26 -146 rlineto
            return
          </CharString>
          <CharString index="594">
            21 hvcurveto
            59 callgsubr
            return
          </CharString>
          <CharString index="595">
            15 438 callsubr
            return
          </CharString>
          <CharString index="596">
            197 71 402 70 hstem
            return
          </CharString>
          <CharString index="597">
            74 159 68 169 70 return
          </CharString>
          <CharString index="598">
            -150 0 75 399 74 return
          </CharString>
          <CharString index="599">
            237 callgsubr
            35 6 return
          </CharString>
          <CharString index="600">
            hhcurveto
            112 86 64 79 return
          </CharString>
          <CharString index="601">
            282 rmoveto
            -183 hlineto
            return
          </CharString>
          <CharString index="602">
            hlineto
            12 67 rlineto
            -21 hlineto
            return
          </CharString>
          <CharString index="603">
            hhcurveto
            -40 502 callsubr
            return
          </CharString>
          <CharString index="604">
            91 -78 callgsubr
            return
          </CharString>
          <CharString index="605">
            -70 70 hstemhm
            91 85 return
          </CharString>
          <CharString index="606">
            -120 -22 -75 -40 return
          </CharString>
          <CharString index="607">
            -260 59 87 56 return
          </CharString>
          <CharString index="608">
            21 -21 98 70 return
          </CharString>
          <CharString index="609">
            hlineto
            -12 -68 rlineto
            return
          </CharString>
          <CharString index="610">
            221 callsubr
            74 14 57 90 return
          </CharString>
          <CharString index="611">
            127 5 80 273 callsubr
            15 591 callsubr
            return
          </CharString>
          <CharString index="612">
            70 301 67 158 556 callgsubr
            hstem
            37 81 vstem
            return
          </CharString>
          <CharString index="613">
            112 rmoveto
            118 callsubr
            return
          </CharString>
          <CharString index="614">
            404 callsubr
            -55 71 197 69 -20 70 166 70 return
          </CharString>
          <CharString index="615">
            117 callsubr
            -216 hlineto
            return
          </CharString>
          <CharString index="616">
            67 332 64 159 556 callgsubr
            hstem
            32 79 vstem
            return
          </CharString>
          <CharString index="617">
            hlineto
            238 callsubr
            60 419 callgsubr
            -104 return
          </CharString>
          <CharString index="618">
            -144 -27 148 callsubr
            return
          </CharString>
          <CharString index="619">
            hlineto
            12 178 callsubr
          </CharString>
          <CharString index="620">
            hlineto
            200 callsubr
          </CharString>
          <CharString index="621">
            hhcurveto
            32 29 25 31 6 hvcurveto
            endchar
          </CharString>
          <CharString index="622">
            -30 -171 rlineto
            return
          </CharString>
          <CharString index="623">
            82 185 79 return
          </CharString>
          <CharString index="624">
            -359 21 -21 return
          </CharString>
          <CharString index="625">
            553 149 callsubr
            return
          </CharString>
          <CharString index="626">
            -98 -19 -81 -79 -101 528 callgsubr
            return
          </CharString>
          <CharString index="627">
            68 -68 -9 callgsubr
            -70 79 hstemhm
            58 87 return
          </CharString>
          <CharString index="628">
            120 21 457 callsubr
            return
          </CharString>
          <CharString index="629">
            454 1 callgsubr
            return
          </CharString>
          <CharString index="630">
            -50 -284 -75 callgsubr
          </CharString>
          <CharString index="631">
            -78 hlineto
            -48 -274 rlineto
            81 hlineto
            return
          </CharString>
          <CharString index="632">
            -75 hlineto
            -45 -256 rlineto
            79 hlineto
            return
          </CharString>
          <CharString index="633">
            -37 callsubr
            49 return
          </CharString>
          <CharString index="634">
            -21 285 73 267 72 hstem
            return
          </CharString>
          <CharString index="635">
            40 69 551 callgsubr
            return
          </CharString>
          <CharString index="636">
            74 134 23 hvcurveto
            13 76 rlineto
            return
          </CharString>
          <CharString index="637">
            -54 66 537 callsubr
            120 return
          </CharString>
          <CharString index="638">
            rmoveto
            19 3 -12 14 -19 hhcurveto
            -19 return
          </CharString>
          <CharString index="639">
            -124 -697 rlineto
            return
          </CharString>
          <CharString index="640">
            -43 50 72 13 hvcurveto
            return
          </CharString>
          <CharString index="641">
            59.5 return
          </CharString>
          <CharString index="642">
            hlineto
            -37 -212 rlineto
            return
          </CharString>
          <CharString index="643">
            -78 -440 rlineto
            return
          </CharString>
          <CharString index="644">
            113 19 hvcurveto
            return
          </CharString>
          <CharString index="645">
            -45 -252 rlineto
            return
          </CharString>
          <CharString index="646">
            90 16 55 197 callsubr
            22 -76 -107 -15 hvcurveto
            return
          </CharString>
          <CharString index="647">
            15 83 rlineto
            201 hlineto
            -53 -299 rlineto
            1 vlineto
            return
          </CharString>
          <CharString index="648">
            -295 200 79 318 -281 -21 99 67 return
          </CharString>
          <CharString index="649">
            -46 18 -132 hhcurveto
            -41 502 callsubr
            42 hlineto
            return
          </CharString>
          <CharString index="650">
            -225 -2 -9 -1 -9 -1 -9 rlinecurve
            -244 hlineto
            return
          </CharString>
          <CharString index="651">
            rmoveto
            20 112 rlineto
            -109 hlineto
            -21 -112 rlineto
            return
          </CharString>
          <CharString index="652">
            347 511 rmoveto
            90 callgsubr
            return
          </CharString>
          <CharString index="653">
            -427 -357 rlineto
            99 hlineto
            315 269 rlineto
            return
          </CharString>
          <CharString index="654">
            359 57 101 70 hstem
            60 74 370 16 vstem
            return
          </CharString>
          <CharString index="655">
            301 415 rmoveto
            -59 36 -33 50 12 69 rrcurveto
            return
          </CharString>
          <CharString index="656">
            403 callsubr
            35 hhcurveto
            endchar
          </CharString>
          <CharString index="657">
            -74 -71 -31 hvcurveto
            -2 hlineto
            return
          </CharString>
          <CharString index="658">
            0 498 -496 67 return
          </CharString>
          <CharString index="659">
            322 callgsubr
            -130 return
          </CharString>
          <CharString index="660">
            -51 -33 -58 -45 -82 hhcurveto
            return
          </CharString>
          <CharString index="661">
            35 6 -22 27 -34 hhcurveto
            return
          </CharString>
          <CharString index="662">
            69 216 70 return
          </CharString>
          <CharString index="663">
            71 116 70 return
          </CharString>
          <CharString index="664">
            70 hstemhm
            49 88 return
          </CharString>
          <CharString index="665">
            136 rmoveto
            13 return
          </CharString>
          <CharString index="666">
            81 95 18 hvcurveto
            hintmask 11100000
            -157 29 rmoveto
            23 return
          </CharString>
          <CharString index="667">
            hvcurveto
            -69 -13 -60 -54 -73 hhcurveto
            -77 -43 50 72 return
          </CharString>
          <CharString index="668">
            40 62 hhcurveto
            60 27 -41 -52 -8 hvcurveto
            59 hlineto
            return
          </CharString>
          <CharString index="669">
            372 callsubr
            -62 471 callsubr
            41 68 return
          </CharString>
          <CharString index="670">
            21 -21 79 71 -38 70 213 70 -69 69 return
          </CharString>
          <CharString index="671">
            433 -369 67 57 71 104 70 hstemhm
            26 return
          </CharString>
          <CharString index="672">
            21 -21 224 489 callgsubr
            return
          </CharString>
          <CharString index="673">
            499 callsubr
            -111 hhcurveto
            -15 hlineto
            -4 return
          </CharString>
          <CharString index="674">
            162 callgsubr
            13 70 rlineto
            return
          </CharString>
          <CharString index="675">
            rmoveto
            -88 -62 -43 -57 -38 592 callgsubr
            return
          </CharString>
          <CharString index="676">
            165 hlineto
            -151 -17 92 -105 175 hhcurveto
            return
          </CharString>
          <CharString index="677">
            -77 -13 hvcurveto
            -1 -9 -1 -11 -9 vvcurveto
            58 hlineto
            return
          </CharString>
          <CharString index="678">
            24 -32 hhcurveto
            -32 -28 -24 -31 -6 hvcurveto
            -32 -6 return
          </CharString>
          <CharString index="679">
            hhcurveto
            -87 -61 -43 -57 -36 hvcurveto
            37 211 rlineto
            return
          </CharString>
          <CharString index="680">
            -437 -353 rlineto
            -4 110 vlineto
            315 return
          </CharString>
          <CharString index="681">
            2 1 6 1 6 vhcurveto
            -82 hlineto
            -2 -13 rlineto
            return
          </CharString>
          <CharString index="682">
            388 callsubr
            100 80 return
          </CharString>
          <CharString index="683">
            hhcurveto
            103 76 45 58 46 hvcurveto
            155 callgsubr
            return
          </CharString>
          <CharString index="684">
            83 -117 hhcurveto
            -115 -86 -72 -99 -17 hvcurveto
            return
          </CharString>
          <CharString index="685">
            -13 hvcurveto
            -69 -12 -62 -54 -72 hhcurveto
            -77 -43 50 return
          </CharString>
          <CharString index="686">
            -38 -64 hhcurveto
            -75 -53 57 76 15 hvcurveto
            81 16 return
          </CharString>
          <CharString index="687">
            12 -131 390 callgsubr
            44 hlineto
            return
          </CharString>
          <CharString index="688">
            -14 20 hhcurveto
            18 18 14 19 3 hvcurveto
            endchar
          </CharString>
          <CharString index="689">
            60 166 61 120 70 return
          </CharString>
          <CharString index="690">
            -70 callgsubr
            431 hlineto
            return
          </CharString>
          <CharString index="691">
            hvcurveto
            -168 334 callsubr
            return
          </CharString>
          <CharString index="692">
            71 321 70 hstemhm
            58 82 return
          </CharString>
          <CharString index="693">
            hhcurveto
            -17 callgsubr
            return
          </CharString>
          <CharString index="694">
            15 rlineto
            175 31 -134 return
          </CharString>
          <CharString index="695">
            -670 rmoveto
            444 callsubr
            return
          </CharString>
          <CharString index="696">
            hlineto
            -91 -72 -39 -79 -14 hvcurveto
            return
          </CharString>
          <CharString index="697">
            61 -61 69 20 73 return
          </CharString>
          <CharString index="698">
            83 rcurveline
            201 hlineto
            return
          </CharString>
          <CharString index="699">
            vstem
            54 349 rmoveto
            return
          </CharString>
          <CharString index="700">
            hhcurveto
            73 44 -52 -71 return
          </CharString>
          <CharString index="701">
            126 22 -35 88 return
          </CharString>
          <CharString index="702">
            556 callgsubr
            hstemhm
            return
          </CharString>
          <CharString index="703">
            87 692 85 return
          </CharString>
          <CharString index="704">
            rlineto
            109 hlineto
            return
          </CharString>
          <CharString index="705">
            70 hstemhm
            92 82 return
          </CharString>
          <CharString index="706">
            38 218 rlineto
            return
          </CharString>
          <CharString index="707">
            38 152 67 -67 556 callsubr
            hstemhm
            return
          </CharString>
          <CharString index="708">
            74 91 hhcurveto
            84 31 -68 -86 -16 hvcurveto
            -3 return
          </CharString>
          <CharString index="709">
            56 53 callsubr
            -80 rlineto
            -83 return
          </CharString>
          <CharString index="710">
            -51 -71 -13 hvcurveto
            -69 -13 -61 -54 -73 hhcurveto
            return
          </CharString>
          <CharString index="711">
            332 68 107 70 hstem
            60 82 341 return
          </CharString>
          <CharString index="712">
            hhcurveto
            7 hlineto
            12 66 rlineto
            -8 hlineto
            -85 -41 return
          </CharString>
          <CharString index="713">
            -21 117 71 return
          </CharString>
          <CharString index="714">
            36 46 34 hvcurveto
            return
          </CharString>
          <CharString index="715">
            70 -70 79 hstemhm
            return
          </CharString>
          <CharString index="716">
            hlineto
            -13 -75 rlineto
            return
          </CharString>
          <CharString index="717">
            hlineto
            13 72 rlineto
            return
          </CharString>
        <CharString name=".notdef">
          -105 0 50 600 50 hstem
          0 50 400 50 vstem
          0 vmoveto
          500 700 -500 hlineto
          250 -305 rmoveto
          -170 255 rlineto
          340 hlineto
          -140 -300 rmoveto
          170 255 rlineto
          -510 vlineto
          -370 -45 rmoveto
          170 255 170 -255 rlineto
          -370 555 rmoveto
          170 -255 -170 -255 rlineto
          endchar
        </CharString>
        <CharString name="A">
          22 callsubr
          -13 71 97 callgsubr
        </CharString>
        <CharString name="AE">
          462 callgsubr
          525 629 100 callsubr
        </CharString>
        <CharString name="Aacute">
          22 callsubr
          82 772 -79 callsubr
          -81 -622 97 callgsubr
        </CharString>
        <CharString name="Abreve">
          69 0 226 -71 71 529 72 hstemhm
          -18 608 hintmask 10110000
          -1 callsubr
          hintmask 01110000
          215 callgsubr
          120 730 -92 callsubr
          -133 -659 97 callgsubr
        </CharString>
        <CharString name="Acircumflex">
          22 callsubr
          90 592 -41 callgsubr
          20 -606 97 callgsubr
        </CharString>
        <CharString name="Adieresis">
          69 0 226 -71 71 hstemhm
          -18 608 -294 107 56 107 26 callgsubr
          hintmask 01011000
          -125 612 -97 callgsubr
          -51 -541 97 callgsubr
        </CharString>
        <CharString name="Agrave">
          22 callsubr
          -131 772 29 callgsubr
          -72 -576 97 callgsubr
        </CharString>
        <CharString name="Amacron">
          69 0 226 -71 71 560 68 hstemhm
          -18 632 hintmask 10110000
          -1 callsubr
          hintmask 01110000
          215 callgsubr
          -204 699 67 callsubr
          -161 -628 97 callgsubr
        </CharString>
        <CharString name="Aogonek">
          69 -206 61 166 -21 155 71 hstem
          -18 608 vstem
          461 693 rmoveto
          -105 hlineto
          -374 -693 rlineto
          96 hlineto
          215 callgsubr
          25 -136 -72 -37 -30 -45 -8 -42 rlinecurve
          -74 -13 59 -27 60 hhcurveto
          26 29 6 8 24 hvcurveto
          11 60 rlineto
          -8 -25 -24 -5 -20 hhcurveto
          -35 -20 17 31 5 hvcurveto
          5 25 19 23 49 22 59 27 rcurveline
          -137 226 97 callgsubr
        </CharString>
        <CharString name="Aring">
          69 0 226 -71 71 526 49 113 48 hstemhm
          -18 608 hintmask 10111000
          -1 callsubr
          hintmask 01111000
          215 callgsubr
          28 703 rmoveto
          -34 -6 -29 -23 -32 hhcurveto
          -30 -21 23 34 6 hvcurveto
          34 6 28 22 31 hhcurveto
          32 21 -22 -34 -6 hvcurveto
          -161 -1 rmoveto
          -65 -11 40 -40 57 hhcurveto
          58 53 40 65 12 hvcurveto
          65 11 -38 40 -59 hhcurveto
          -57 -54 -40 -65 -12 hvcurveto
          120 -631 97 callgsubr
        </CharString>
        <CharString name="Atilde">
          69 0 226 -71 71 524 443 callsubr
          -18 619 hintmask 10101000
          -1 callsubr
          hintmask 01011000
          215 callgsubr
          -193 597 -22 callgsubr
          hintmask 01101000
          -65 callgsubr
          hintmask 01011000
          -52 -45 -36 -69 -21 hvcurveto
          180 -526 97 callgsubr
        </CharString>
        <CharString name="B">
          8 0 72 250 72 231 72 hstem
          459 90 vstem
          456 196 rmoveto
          -77 -13 -62 -47 -90 hhcurveto
          -161 hlineto
          44 250 rlineto
          158 hlineto
          88 51 -49 -77 -15 hvcurveto
          38 313 rmoveto
          -71 -12 -57 -44 -85 hhcurveto
          -153 hlineto
          41 231 rlineto
          151 hlineto
          88 40 -45 -71 -13 hvcurveto
          52 -322 rmoveto
          15 86 -49 73 -74 13 72 22 63 51 15 88 rrcurveto
          97 18 -59 80 -147 hhcurveto
          -250 441 callgsubr
          260 hlineto
          144 98 82 105 18 hvcurveto
          endchar
        </CharString>
        <CharString name="C">
          167 -6 82 547 83 hstem
          48 94 -59 callgsubr
          endchar
        </CharString>
        <CharString name="CR">
          -307 endchar
        </CharString>
        <CharString name="Cacute">
          167 -6 82 547 83 hstem
          48 94 -59 callgsubr
          549 578 -79 callsubr
          endchar
        </CharString>
        <CharString name="Ccaron">
          167 -6 82 547 83 hstem
          48 94 -59 callgsubr
          585 552 -52 callgsubr
        </CharString>
        <CharString name="Ccedilla">
          167 500 callsubr
          53 81 547 83 hstem
          48 94 592 callsubr
          -35 -200 114 -142 181 -12 -20 -109 rcurveline
          44 callsubr
          9 53 rcurveline
          136 11 118 74 70 123 rrcurveto
          -109 hlineto
          -80 -52 -83 -47 -102 hhcurveto
          -145 -90 106 167 29 hvcurveto
          168 30 127 106 146 hhcurveto
          102 66 -47 -81 24 hvcurveto
          109 hlineto
          135 -29 -107 76 -151 hhcurveto
          -194 -179 -148 -209 -37 hvcurveto
          endchar
        </CharString>
        <CharString name="Cdotaccent">
          167 -6 82 547 83 55 105 hstem
          48 94 290 105 -59 callgsubr
          422 412 -55 callsubr
        </CharString>
        <CharString name="D">
          81 callsubr
          endchar
        </CharString>
        <CharString name="Dcaron">
          81 callsubr
          342 831 -52 callgsubr
        </CharString>
        <CharString name="Dcroat">
          27 callgsubr
        </CharString>
        <CharString name="E">
          309 callsubr
          hstem
          26 498 vstem
          -91 callsubr
          endchar
        </CharString>
        <CharString name="Eacute">
          309 callsubr
          hstem
          26 498 vstem
          -91 callsubr
          238 301 -79 callsubr
          endchar
        </CharString>
        <CharString name="Ebreve">
          309 callsubr
          -72 277 -148 72 hstemhm
          26 498 hintmask 11101100
          -91 callsubr
          275 259 rmoveto
          hintmask 11010100
          3 18 rlineto
          -54 hlineto
          hintmask 11101100
          -48 -9 -29 -28 -64 hhcurveto
          hintmask 11010100
          -64 -19 28 48 8 hvcurveto
          -54 hlineto
          -3 -17 rlineto
          hintmask 11101100
          513 callgsubr
        </CharString>
        <CharString name="Ecaron">
          309 callsubr
          hstem
          26 498 vstem
          -91 callsubr
          274 275 -52 callgsubr
        </CharString>
        <CharString name="Ecircumflex">
          309 callsubr
          hstem
          26 498 vstem
          -91 callsubr
          246 121 -41 callgsubr
          endchar
        </CharString>
        <CharString name="Edieresis">
          309 callsubr
          hstemhm
          26 498 -310 107 56 107 hintmask 11110000
          -91 callsubr
          hintmask 11101100
          31 141 -97 callgsubr
          endchar
        </CharString>
        <CharString name="Edotaccent">
          309 callsubr
          63 105 hstemhm
          26 498 -229 105 hintmask 11101000
          -91 callsubr
          hintmask 11110100
          111 135 -55 callsubr
        </CharString>
        <CharString name="Egrave">
          309 callsubr
          hstem
          26 498 vstem
          -91 callsubr
          25 301 29 callgsubr
          endchar
        </CharString>
        <CharString name="Emacron">
          309 callsubr
          88 68 hstem
          26 505 vstem
          -91 callsubr
          -49 228 67 callsubr
          endchar
        </CharString>
        <CharString name="Eogonek">
          -92 -206 61 145 186 callsubr
          hstem
          26 498 vstem
          511 626 rmoveto
          13 72 rlineto
          -374 hlineto
          -124 -698 rlineto
          254 hlineto
          -55 -33 -26 -35 -6 -38 rrcurveto
          37 callgsubr
          13 72 rlineto
          -284 hlineto
          44 245 rlineto
          253 -53 callsubr
          -253 hlineto
          42 239 rlineto
          endchar
        </CharString>
        <CharString name="Eth">
          27 callgsubr
        </CharString>
        <CharString name="Euro">
          206 -6 82 157 64 101 63 162 83 hstem
          116 88 vstem
          116 349 rmoveto
          -3 -18 -2 -17 -1 -17 rrcurveto
          -84 hlineto
          -11 -64 rlineto
          98 hlineto
          -145 19 113 -94 157 hhcurveto
          150 133 75 134 76 hvcurveto
          -109 hlineto
          -80 -52 -82 -47 -102 hhcurveto
          -108 -78 58 99 -20 hvcurveto
          234 hlineto
          12 64 rlineto
          -252 hlineto
          1 17 2 17 3 18 3 17 4 16 5 16 rrcurveto
          252 hlineto
          10 63 rlineto
          -235 hlineto
          102 55 99 60 110 hhcurveto
          102 65 -47 -81 24 hvcurveto
          108 hlineto
          135 -28 -107 76 -150 hhcurveto
          -158 -147 -97 -148 -70 hvcurveto
          -97 hlineto
          -11 -63 rlineto
          84 hlineto
          -5 -16 -4 -16 -3 -17 rrcurveto
          endchar
        </CharString>
        <CharString name="F">
          -101 21 -21 316 71 239 71 hstem
          26 517 vstem
          150 697 rmoveto
          532 callsubr
          91 hlineto
          56 316 rlineto
          246 611 callgsubr
          -246 hlineto
          42 239 rlineto
          302 611 callgsubr
          endchar
        </CharString>
        <CharString name="G">
          456 callsubr
          hstem
          48 94 vstem
          54 349 -70 callsubr
          endchar
        </CharString>
        <CharString name="Gbreve">
          456 callsubr
          50 72 hstem
          48 94 vstem
          54 349 -70 callsubr
          586 536 -92 callsubr
          endchar
        </CharString>
        <CharString name="Gdotaccent">
          456 callsubr
          56 105 hstem
          48 94 290 105 vstem
          54 349 -70 callsubr
          422 412 -55 callsubr
        </CharString>
        <CharString name="H">
          86 0 389 -71 71 -71 379 hstemhm
          26 660 hintmask 00110000
          595 697 rmoveto
          hintmask 01010000
          -54 -308 rlineto
          -355 hlineto
          hintmask 00110000
          55 308 rlineto
          -91 hlineto
          hintmask 10010000
          532 callsubr
          91 hlineto
          hintmask 01010000
          57 318 rlineto
          354 hlineto
          hintmask 10010000
          -56 -318 rlineto
          91 hlineto
          hintmask 00110000
          123 697 rlineto
          endchar
        </CharString>
        <CharString name="I">
          -359 439 callgsubr
          26 215 vstem
          18 callsubr
          endchar
        </CharString>
        <CharString name="Iacute">
          -359 439 callgsubr
          26 308 vstem
          18 callsubr
          93 230 -79 callsubr
          endchar
        </CharString>
        <CharString name="Icircumflex">
          -359 439 callgsubr
          26 329 vstem
          18 callsubr
          101 50 -41 callgsubr
          endchar
        </CharString>
        <CharString name="Idieresis">
          -359 238 callgsubr
          hstemhm
          26 326 -270 107 56 107 hintmask 11100000
          18 callsubr
          hintmask 11011000
          -114 70 -97 callgsubr
          endchar
        </CharString>
        <CharString name="Idotaccent">
          -359 238 callgsubr
          84 105 hstemhm
          26 243 -106 105 hintmask 11110000
          18 callsubr
          hintmask 11101000
          -34 64 -55 callsubr
        </CharString>
        <CharString name="Igrave">
          -359 439 callgsubr
          26 285 vstem
          18 callsubr
          -120 230 29 callgsubr
          endchar
        </CharString>
        <CharString name="Imacron">
          -359 238 callgsubr
          109 68 hstem
          26 373 vstem
          18 callsubr
          -194 157 67 callsubr
          endchar
        </CharString>
        <CharString name="Iogonek">
          -359 -205 61 166 -21 696 -20 hstem
          -92 333 vstem
          150 697 rmoveto
          -121 -679 23 callsubr
          57 26 rcurveline
          1 1 1 hlineto
          -1 2 124 694 rlineto
          endchar
        </CharString>
        <CharString name="Itilde">
          -359 238 callgsubr
          73 443 callsubr
          26 361 hintmask 11101000
          18 callsubr
          hintmask 11011000
          -182 55 -22 callgsubr
          hintmask 11101000
          -65 callgsubr
          hintmask 11011000
          127 callsubr
        </CharString>
        <CharString name="J">
          -75 -7 81 623 -20 hstem
          20 92 vstem
          408 697 rmoveto
          -90 -515 rlineto
          -58 -11 -38 -50 -71 hhcurveto
          -73 -21 51 64 11 hvcurveto
          -91 hlineto
          -122 -22 65 -74 116 hhcurveto
          115 90 73 116 21 hvcurveto
          91 515 rlineto
          endchar
        </CharString>
        <CharString name="K">
          -6 439 callgsubr
          26 617 vstem
          529 697 rmoveto
          -345 -322 57 322 rlineto
          491 callgsubr
          91 hlineto
          57 318 230 -318 rlineto
          119 hlineto
          -257 348 377 349 rlineto
          endchar
        </CharString>
        <CharString name="L">
          -173 0 70 627 -20 hstem
          26 348 368 callgsubr
          endchar
        </CharString>
        <CharString name="Lacute">
          -173 0 70 627 -20 hstem
          26 402 368 callgsubr
          298 857 -79 callsubr
          endchar
        </CharString>
        <CharString name="Lcaron">
          -159 0 70 422 43 77 85 hstem
          385.5 534 callsubr
          vstem
          445 697 rmoveto
          -91 hlineto
          -16 -85 rlineto
          50 hlineto
          -5 -23 rlineto
          -36 -5 -18 -18 -33 hhcurveto
          -8 -43 rlineto
          66 42 35 79 13 hvcurveto
          5 26 2 30 -2 35 rrcurveto
          -204 hmoveto
          434 callgsubr
        </CharString>
        <CharString name="Ldot">
          -173 0 70 236 105 286 -20 hstemhm
          26 379 -106 105 hintmask 11110000
          26 hmoveto
          335 -36 callsubr
          -244 hlineto
          111 627 rlineto
          -91 hlineto
          hintmask 11101000
          193 -391 rmoveto
          29 27 23 29 5 hvcurveto
          29 6 -20 24 -28 hhcurveto
          -30 -28 -24 -29 -5 hvcurveto
          -29 -5 363 callsubr
          endchar
        </CharString>
        <CharString name="Lslash">
          -168 0 70 627 -20 hstem
          7 380 vstem
          255 697 rmoveto
          -92 hlineto
          -54 -308 -87 -29 -15 -85 87 29 -54 -304 rlineto
          334 -36 callsubr
          -243 hlineto
          47 267 116 39 15 86 -116 -39 rlineto
          endchar
        </CharString>
        <CharString name="M">
          256 0 692 hstem
          26 829 vstem
          149 692 rmoveto
          -123 -692 rlineto
          91 hlineto
          91 514 140 -514 rlineto
          64 hlineto
          321 516 -91 -516 rlineto
          91 hlineto
          122 692 rlineto
          -97 hlineto
          -356 -572 -155 572 rlineto
          endchar
        </CharString>
        <CharString name="N">
          98 21 -21 698 -20 hstem
          26 672 vstem
          698 698 26 callsubr
          endchar
        </CharString>
        <CharString name="NULL">
          -605 endchar
        </CharString>
        <CharString name="Nacute">
          98 21 -21 698 -20 hstem
          26 672 vstem
          698 698 26 callsubr
          -11 927 -79 callsubr
          endchar
        </CharString>
        <CharString name="Ncaron">
          98 21 -21 698 -20 hstem
          26 672 vstem
          698 698 26 callsubr
          25 901 -52 callgsubr
        </CharString>
        <CharString name="Ntilde">
          98 21 -21 698 -20 72 443 callsubr
          26 672 hintmask 11101000
          698 698 26 callsubr
          hintmask 11011000
          -286 752 -22 callgsubr
          hintmask 11101000
          -65 callgsubr
          hintmask 11011000
          127 callsubr
        </CharString>
        <CharString name="O">
          420 callgsubr
          hstem
          52 94 516 94 vstem
          -102 callsubr
          endchar
        </CharString>
        <CharString name="OE">
          483 -7 82 -75 72 244 71 171 -20 85 82 -79 71 hstemhm
          50 94 525 31 -31 92 hintmask 0111011100000000
          803 626 rmoveto
          283 hlineto
          14 71 rlineto
          -375 hlineto
          -25 -139 rlineto
          hintmask 1011101100000000
          94 -34 -87 53 -117 hhcurveto
          -188 -181 -145 -211 -37 hvcurveto
          -209 -37 129 -147 189 hhcurveto
          116 106 53 97 68 hvcurveto
          hintmask 0111011010000000
          -25 -143 rlineto
          374 610 callsubr
          -283 hlineto
          43 244 rlineto
          253 611 callgsubr
          -254 hlineto
          hintmask 1011101010000000
          -611 -38 rmoveto
          168 30 128 106 147 hhcurveto
          147 91 -106 -168 -29 hvcurveto
          -167 -30 -129 -107 -147 hhcurveto
          -147 -91 107 167 30 hvcurveto
          endchar
        </CharString>
        <CharString name="Oacute">
          420 callgsubr
          hstem
          52 94 516 94 vstem
          -102 callsubr
          248 858 -79 callsubr
          endchar
        </CharString>
        <CharString name="Ocircumflex">
          420 callgsubr
          hstem
          52 94 516 94 vstem
          -102 callsubr
          255 678 -41 callgsubr
          endchar
        </CharString>
        <CharString name="Odieresis">
          420 callgsubr
          hstem
          52 94 206 107 56 107 40 94 vstem
          -102 callsubr
          40 698 -97 callgsubr
          endchar
        </CharString>
        <CharString name="Ograve">
          420 callgsubr
          hstem
          52 94 516 94 vstem
          -102 callsubr
          35 858 29 callgsubr
          endchar
        </CharString>
        <CharString name="Ohungarumlaut">
          420 callgsubr
          47 154 hstem
          52 94 516 94 vstem
          -102 callsubr
          340 831 111 callgsubr
        </CharString>
        <CharString name="Omacron">
          420 callgsubr
          87 68 hstem
          52 94 516 94 vstem
          -102 callsubr
          -39 785 67 callsubr
          endchar
        </CharString>
        <CharString name="Oslash">
          181 -7 82 -54 -21 623 82 -7 -20 hstemhm
          52 94 516 94 hintmask 10101100
          344 -7 rmoveto
          237 175 183 240 67 -18 60 -33 47 hvcurveto
          hintmask 10011100
          119 108 rlineto
          -75 hlineto
          hintmask 01101100
          -77 -70 rlineto
          49 -50 -72 28 -87 hhcurveto
          -235 -176 -183 -239 -68 18 -59 33 -47 hvcurveto
          -119 -109 rlineto
          74 hlineto
          hintmask 10101100
          77 71 rlineto
          -50 51 72 -28 86 hhcurveto
          -198 296 rmoveto
          179 123 155 181 65 53 -20 -37 37 vhcurveto
          -432 -393 rlineto
          -18 32 -9 39 45 vvcurveto
          211 -214 rmoveto
          -65 -52 20 37 -37 hvcurveto
          432 394 rlineto
          18 -32 9 -39 -45 vvcurveto
          -180 -125 -155 -180 vhcurveto
          endchar
        </CharString>
        <CharString name="Otilde">
          420 callgsubr
          51 443 callsubr
          52 94 516 94 hintmask 11101100
          -102 callsubr
          hintmask 11011100
          -28 683 -22 callgsubr
          hintmask 11101100
          -65 callgsubr
          hintmask 11011100
          127 callsubr
        </CharString>
        <CharString name="P">
          -26 21 -21 291 72 262 72 hstem
          489 94 vstem
          316 363 rmoveto
          -134 hlineto
          46 262 rlineto
          134 hlineto
          104 35 -51 -81 -15 hvcurveto
          -78 -14 -52 -52 -104 hhcurveto
          263 130 rmoveto
          114 20 -60 90 -164 hhcurveto
          -225 441 callgsubr
          91 hlineto
          52 291 574 callgsubr
          endchar
        </CharString>
        <CharString name="Q">
          183 393 callsubr
          hstem
          52 94 516 94 vstem
          357 75 rmoveto
          -130 -81 82 132 179 123 155 181 131 81 -81 -132 -180 -125 -155 -180 hvcurveto
          -13 -82 rmoveto
          37 35 4 9 33 hvcurveto
          113 -138 rlineto
          118 hlineto
          -143 171 rlineto
          133 69 86 140 168 vvcurveto
          170 -115 119 -178 -235 -176 -183 -239 -171 116 -119 176 vhcurveto
          endchar
        </CharString>
        <CharString name="R">
          -31 callgsubr
          endchar
        </CharString>
        <CharString name="Racute">
          -31 callgsubr
          148 230 -79 callsubr
          endchar
        </CharString>
        <CharString name="Rcaron">
          -31 callgsubr
          184 204 -52 callgsubr
        </CharString>
        <CharString name="S">
          -23 -7 74 564 75 hstem
          90 92 234 94 vstem
          264 -7 -64 callsubr
          endchar
        </CharString>
        <CharString name="Sacute">
          -23 -7 74 564 75 hstem
          90 92 234 94 vstem
          264 -7 -64 callsubr
          241 934 -79 callsubr
          endchar
        </CharString>
        <CharString name="Scaron">
          -23 -7 74 564 75 hstem
          90 92 234 94 vstem
          264 -7 -64 callsubr
          277 908 -52 callgsubr
        </CharString>
        <CharString name="T">
          -64 21 -21 626 71 hstem
          94 484 vstem
          107 697 165 callgsubr
          endchar
        </CharString>
        <CharString name="Tcaron">
          -64 21 -21 626 71 hstem
          94 484 vstem
          107 697 165 callgsubr
          -60 204 -52 callgsubr
        </CharString>
        <CharString name="Thorn">
          -26 0 219 -73 73 262 72 -72 217 hstemhm
          464 94 hintmask 01101000
          290 219 rmoveto
          -134 hlineto
          47 262 rlineto
          134 hlineto
          104 34 -52 -80 -14 hvcurveto
          -78 -14 -53 -52 -104 hhcurveto
          264 130 rmoveto
          114 20 -61 90 -164 hhcurveto
          -135 hlineto
          hintmask 10011000
          26 145 rlineto
          -90 hlineto
          -124 -698 rlineto
          91 hlineto
          hintmask 01101000
          293 callsubr
          134 hlineto
          172 86 96 107 19 hvcurveto
          endchar
        </CharString>
        <CharString name="U">
          282 callsubr
          hstem
          64 92 vstem
          -99 callgsubr
          endchar
        </CharString>
        <CharString name="Uacute">
          282 callsubr
          hstem
          64 92 vstem
          -99 callgsubr
          310 230 -79 callsubr
          endchar
        </CharString>
        <CharString name="Ubreve">
          282 callsubr
          78 72 hstem
          64 92 vstem
          -99 callgsubr
          347 188 -92 callsubr
          endchar
        </CharString>
        <CharString name="Ucircumflex">
          282 callsubr
          hstem
          64 92 vstem
          -99 callgsubr
          317 50 -41 callgsubr
          endchar
        </CharString>
        <CharString name="Udieresis">
          282 callsubr
          hstem
          64 92 140 107 56 107 vstem
          -99 callgsubr
          102 70 -97 callgsubr
          endchar
        </CharString>
        <CharString name="Ugrave">
          282 callsubr
          hstem
          64 92 vstem
          -99 callgsubr
          97 230 29 callgsubr
          endchar
        </CharString>
        <CharString name="Uhungarumlaut">
          282 callsubr
          69 154 hstem
          64 92 vstem
          -99 callgsubr
          402 203 111 callgsubr
        </CharString>
        <CharString name="Umacron">
          282 callsubr
          109 68 hstem
          64 92 vstem
          -99 callgsubr
          23 157 67 callsubr
          endchar
        </CharString>
        <CharString name="Uogonek">
          70 -206 61 -61 280 -56 -21 700 -20 hstemhm
          64 92 hintmask 10111000
          148 697 rmoveto
          -78 -440 -28 -158 75 -83 115 -19 rlinecurve
          -53 -32 -24 -34 -6 -37 rrcurveto
          37 callgsubr
          114 24 97 83 27 150 78 440 rcurveline
          -91 hlineto
          536 callsubr
          hintmask 01011000
          -127 -23 -77 -56 -104 hhcurveto
          -102 -59 56 127 22 hvcurveto
          78 440 rlineto
          endchar
        </CharString>
        <CharString name="Uring">
          282 callsubr
          75 49 113 48 hstem
          64 92 vstem
          -99 callgsubr
          94 160 -15 callgsubr
          endchar
        </CharString>
        <CharString name="Utilde">
          282 callsubr
          73 443 callsubr
          64 92 hintmask 11101000
          -99 callgsubr
          hintmask 11011000
          34 55 -22 callgsubr
          hintmask 11101000
          -65 callgsubr
          hintmask 11011000
          127 callsubr
        </CharString>
        <CharString name="V">
          71 0 98 -77 404 callgsubr
          hstemhm
          94 632 hintmask 01110000
          94 697 rmoveto
          140 -697 rlineto
          105 hlineto
          387 697 rlineto
          -98 hlineto
          hintmask 10110000
          -325 -599 -111 599 rlineto
          endchar
        </CharString>
        <CharString name="W">
          -60 callsubr
          endchar
        </CharString>
        <CharString name="Wacute">
          -60 callsubr
          550 238 -79 callsubr
          endchar
        </CharString>
        <CharString name="Wcircumflex">
          -60 callsubr
          485 58 -41 callgsubr
          endchar
        </CharString>
        <CharString name="Wdieresis">
          371 -1 109 -108 110 -90 -21 22 -21 561 136 0 -20 hstemhm
          95 930 -607 107 56 107 hintmask 0001011000000000
          95 697 rmoveto
          hintmask 0010101000000000
          72 -698 102 1 266 561 rlineto
          hintmask 0001011000000000
          63 -561 rlineto
          102 hlineto
          325 697 rlineto
          -98 hlineto
          hintmask 0100011000000000
          -256 -587 -56 587 rlineto
          -103 hlineto
          hintmask 1000011000000000
          -271 -589 -48 589 rlineto
          hintmask 0001010110000000
          270 76 -97 callgsubr
          endchar
        </CharString>
        <CharString name="Wgrave">
          -60 callsubr
          222 235 29 callgsubr
          endchar
        </CharString>
        <CharString name="X">
          16 439 callgsubr
          -6 655 vstem
          422 hmoveto
          103 hlineto
          -152 348 276 349 rlineto
          -102 hlineto
          -208 -272 -119 272 rlineto
          -102 hlineto
          152 -348 -276 -349 rlineto
          102 hlineto
          207 273 rlineto
          endchar
        </CharString>
        <CharString name="Y">
          -21 439 callgsubr
          91 547 vstem
          -16 callgsubr
          endchar
        </CharString>
        <CharString name="Yacute">
          -21 439 callgsubr
          91 547 vstem
          -16 callgsubr
          311 230 -79 callsubr
          endchar
        </CharString>
        <CharString name="Ycircumflex">
          -21 439 callgsubr
          91 547 vstem
          -16 callgsubr
          319 50 -41 callgsubr
          endchar
        </CharString>
        <CharString name="Ydieresis">
          -21 238 callgsubr
          hstemhm
          91 547 -386 107 56 107 hintmask 11100000
          -16 callgsubr
          hintmask 11011000
          104 70 -97 callgsubr
          endchar
        </CharString>
        <CharString name="Ygrave">
          -21 439 callgsubr
          91 547 vstem
          -16 callgsubr
          98 230 29 callgsubr
          endchar
        </CharString>
        <CharString name="Z">
          -64 0 79 539 79 hstem
          -5 569 vstem
          47 callgsubr
          endchar
        </CharString>
        <CharString name="Zacute">
          -64 0 79 539 79 hstem
          -5 569 vstem
          47 callgsubr
          365 848 -79 callsubr
          endchar
        </CharString>
        <CharString name="Zcaron">
          -64 0 79 539 79 hstem
          -5 569 vstem
          47 callgsubr
          401 822 -52 callgsubr
        </CharString>
        <CharString name="Zdotaccent">
          -64 0 79 539 79 64 105 hstemhm
          -5 569 -253 105 hintmask 11010000
          47 callgsubr
          hintmask 11101000
          238 682 -55 callsubr
        </CharString>
        <CharString name="a">
          120 callgsubr
          hstemhm
          34 96 hintmask 10101000
          -13 callgsubr
          hintmask 01011000
          57 callsubr
          hintmask 10101000
          57 -22 -60 52 -102 hhcurveto
          -148 80 callsubr
        </CharString>
        <CharString name="a.ss02">
          96 callsubr
          440 callsubr
          hintmask 10111100
          397 96 rmoveto
          hintmask 01011100
          -85 callsubr
          hintmask 10111100
          394 callsubr
          vhcurveto
          -91 callgsubr
        </CharString>
        <CharString name="aacute">
          120 callgsubr
          hstemhm
          34 96 hintmask 10101000
          -13 callgsubr
          hintmask 01011000
          57 callsubr
          hintmask 10101000
          57 -22 -60 52 -102 hhcurveto
          -148 -101 callgsubr
          19 507 -79 callsubr
          endchar
        </CharString>
        <CharString name="aacute.ss02">
          96 callsubr
          440 callsubr
          hintmask 10111100
          524 505 callgsubr
          -113 -607 rmoveto
          hintmask 01011100
          -85 callsubr
          hintmask 10111100
          394 callsubr
          vhcurveto
          -91 callgsubr
        </CharString>
        <CharString name="abreve">
          120 callgsubr
          82 72 76 -20 hstemhm
          34 96 hintmask 10101110
          -13 callgsubr
          hintmask 01011110
          57 callsubr
          hintmask 10101110
          57 -22 -60 52 -102 hhcurveto
          -148 -101 callgsubr
          56 465 -92 callsubr
          endchar
        </CharString>
        <CharString name="abreve.ss02">
          96 callsubr
          48 72 76 -20 440 callsubr
          hintmask 10111111
          561 740 -92 callsubr
          -164 -644 rmoveto
          hintmask 01011111
          -85 callsubr
          hintmask 10111111
          394 callsubr
          vhcurveto
          -91 callgsubr
        </CharString>
        <CharString name="acircumflex">
          120 callgsubr
          229 -20 -31 callsubr
          27 327 -41 callgsubr
          endchar
        </CharString>
        <CharString name="acircumflex.ss02">
          96 callsubr
          195 -20 440 callsubr
          hintmask 10111110
          532 602 -41 callgsubr
          -12 -591 rmoveto
          hintmask 01011110
          -85 callsubr
          hintmask 10111110
          394 callsubr
          vhcurveto
          -91 callgsubr
        </CharString>
        <CharString name="acute">
          -358 589 193 hstem
          70 248 vstem
          318 505 callgsubr
          endchar
        </CharString>
        <CharString name="adieresis">
          120 callgsubr
          hstemhm
          34 96 142 107 56 107 hintmask 10101000
          -13 callgsubr
          hintmask 01011000
          57 callsubr
          hintmask 10101000
          57 -22 -60 52 -102 hhcurveto
          -148 -101 callgsubr
          hintmask 10101110
          -188 347 -97 callgsubr
          endchar
        </CharString>
        <CharString name="adieresis.ss02">
          96 callsubr
          60 105 hstemhm
          18 95 159 107 56 107 -102 94 hintmask 1011111010000000
          317 622 rmoveto
          31 31 28 34 24 -18 19 -26 -33 -30 -29 -33 -25 19 -18 26 hvcurveto
          hintmask 1011111100000000
          163 hmoveto
          31 31 28 34 24 -19 19 -25 -33 -30 -29 -33 -25 18 -18 27 hvcurveto
          -83 -526 rmoveto
          hintmask 0101111010000000
          -85 callsubr
          hintmask 1011111010000000
          394 callsubr
          vhcurveto
          -169 hlineto
          -140 -109 -74 -116 -89 63 -54 96 hvcurveto
          hintmask 1011111100000000
          96 84 48 58 40 hvcurveto
          hintmask 1011111010000000
          -184 -27 rmoveto
          -63 -37 32 50 58 51 49 92 hvcurveto
          169 hlineto
          -2 -13 rlineto
          -117 -21 -104 -59 -85 hhcurveto
          endchar
        </CharString>
        <CharString name="ae">
          492 -47 callgsubr
          endchar
        </CharString>
        <CharString name="agrave">
          120 callgsubr
          175 -20 -31 callsubr
          -194 507 29 callgsubr
          endchar
        </CharString>
        <CharString name="agrave.ss02">
          96 callsubr
          141 -20 440 callsubr
          hintmask 10111110
          311 782 29 callgsubr
          -104 -561 rmoveto
          hintmask 01011110
          -85 callsubr
          hintmask 10111110
          394 callsubr
          vhcurveto
          -91 callgsubr
        </CharString>
        <CharString name="amacron">
          120 callgsubr
          113 68 -31 callsubr
          -267 434 67 callsubr
          endchar
        </CharString>
        <CharString name="amacron.ss02">
          96 callsubr
          79 68 440 callsubr
          hintmask 10111110
          237 709 67 callsubr
          -192 -613 rmoveto
          hintmask 01011110
          -85 callsubr
          hintmask 10111110
          394 callsubr
          vhcurveto
          -91 callgsubr
        </CharString>
        <CharString name="ampersand">
          145 -12 78 -66 362 274 75 hstemhm
          21 93 74 93 179 92 hintmask 01111100
          459 556 rmoveto
          91 hlineto
          1 9 1 9 9 vvcurveto
          73 -57 55 -95 -125 -87 -78 -111 -35 12 -32 27 -38 vhcurveto
          -122 -46 -84 -90 -115 vvcurveto
          hintmask 10111100
          -111 82 -67 130 97 81 34 70 79 vhcurveto
          hintmask 01111100
          75 -92 rlineto
          118 hlineto
          -129 157 18 19 17 21 17 23 rlinecurve
          107 142 rlineto
          -98 hlineto
          -89 -113 -8 -10 -8 -10 -7 -9 rlinecurve
          -172 209 rlineto
          -33 44 -17 31 33 vvcurveto
          54 44 45 61 44 30 -24 -41 -5 0 -5 -1 -5 vhcurveto
          hintmask 10111100
          -213 -490 rmoveto
          -81 -51 47 66 85 65 60 94 34 hvcurveto
          168 -205 rlineto
          -59 -63 -61 -28 -71 hhcurveto
          endchar
        </CharString>
        <CharString name="ampersand.ss03">
          58 -8 76 -47 -21 332 72 124 205 -77 77 hstemhm
          18 596 hintmask 10101100
          415 733 rmoveto
          -117 -77 -80 -82 -14 hvcurveto
          -10 -57 18 -45 35 -54 8 -11 rcurveline
          -3 -2 0 -3 hhcurveto
          -104 -102 -80 -123 -22 hvcurveto
          -125 -23 80 -84 113 hhcurveto
          98 89 66 87 35 hvcurveto
          hintmask 01101100
          91 -145 597 callsubr
          -290 469 -24 39 -9 26 7 36 rlinecurve
          46 8 40 40 55 hhcurveto
          56 30 -38 -54 -10 hvcurveto
          hintmask 10110100
          -2 -11 -4 -15 -6 -10 rrcurveto
          89 hlineto
          7 13 5 17 3 15 rrcurveto
          hintmask 10101100
          80 14 -47 80 -121 hhcurveto
          -312 -531 rmoveto
          78 14 62 52 69 hhcurveto
          67 52 -58 -76 -14 hvcurveto
          -73 -12 -65 -57 -70 hhcurveto
          -69 -48 55 79 14 hvcurveto
          endchar
        </CharString>
        <CharString name="aogonek">
          71 -206 61 136 559 callgsubr
          -13 callgsubr
          -16 -85 23 callsubr
          59 27 rcurveline
          hintmask 11011000
          97 548 496 callgsubr
          hintmask 11101000
          57 -22 -60 52 -102 hhcurveto
          -148 80 callsubr
        </CharString>
        <CharString name="aogonek.ss02">
          -4 -206 61 135 79 189 65 163 76 hstem
          423 callgsubr
          vstem
          397 96 rmoveto
          -14 -79 23 callsubr
          59 27 rcurveline
          57 321 rlineto
          3 20 2 19 16 vvcurveto
          121 -81 65 -113 -141 -90 -85 -115 -37 vhcurveto
          89 hlineto
          80 27 60 44 74 hhcurveto
          78 40 -43 -78 394 callsubr
          hvcurveto
          -91 callgsubr
        </CharString>
        <CharString name="apostrophemod.ss01">
          -443 580 42 77 86 hstem
          150 59 vstem
          209 785 rmoveto
          103 callsubr
        </CharString>
        <CharString name="approxequal">
          -86 200 82 -17 82 64 82 -17 82 hstemhm
          30 470 hintmask 01011000
          30 201 rmoveto
          379 callsubr
          hintmask 10011000
          72 61 45 101 35 hvcurveto
          -68 hlineto
          454 callsubr
          hintmask 01011000
          -72 -59 -46 -100 -36 hvcurveto
          211 vmoveto
          379 callsubr
          hintmask 01101000
          72 61 45 101 35 hvcurveto
          hintmask 01011000
          -68 hlineto
          hintmask 01101000
          454 callsubr
          hintmask 01011000
          -72 -59 -46 -100 -36 hvcurveto
          endchar
        </CharString>
        <CharString name="aring">
          120 callgsubr
          79 49 113 48 hstemhm
          34 96 hintmask 10101110
          -13 callgsubr
          hintmask 01011110
          57 callsubr
          hintmask 10101110
          57 -22 -60 52 -102 hhcurveto
          -148 -101 callgsubr
          -196 437 -15 callgsubr
          endchar
        </CharString>
        <CharString name="aring.ss02">
          96 callsubr
          45 49 113 48 440 callsubr
          hintmask 10111111
          309 712 -15 callgsubr
          -73 -617 rmoveto
          hintmask 01011111
          -85 callsubr
          hintmask 10111111
          394 callsubr
          vhcurveto
          -91 callgsubr
        </CharString>
        <CharString name="asciicircum">
          24 169 524 hstem
          16 556 vstem
          368 581 rmoveto
          109 -412 rlineto
          95 hlineto
          -144 524 rlineto
          -84 hlineto
          -328 -524 rlineto
          94 hlineto
          endchar
        </CharString>
        <CharString name="asciitilde">
          -86 247 82 -17 82 hstemhm
          30 470 hintmask 01100000
          30 248 rmoveto
          379 callsubr
          hintmask 10100000
          72 61 45 101 35 hvcurveto
          -68 hlineto
          454 callsubr
          hintmask 01100000
          -72 -59 -46 -100 -36 hvcurveto
          endchar
        </CharString>
        <CharString name="asterisk">
          -119 360 374 -187 -20 21 -20 hstemhm
          96 383 hintmask 00110000
          316 582 rmoveto
          hintmask 10010000
          44 152 rlineto
          -75 hlineto
          -11 -152 -109 88 rlineto
          hintmask 00110000
          -47 -65 128 -57 -150 -58 27 -68 138 89 rlineto
          hintmask 10010000
          -41 -151 rlineto
          74 hlineto
          10 151 107 -88 rlineto
          hintmask 01010000
          47 66 -129 58 150 58 -25 65 rlineto
          endchar
        </CharString>
        <CharString name="at">
          406 -199 65 127 62 -62 71 315 70 128 64 hstemhm
          69 75 126 85 256 69 -69 72 -59 56 183 74 hintmask 1101111100100000
          427 -199 rmoveto
          69 67 12 25 61 hvcurveto
          -13 62 rlineto
          -24 -50 -60 -10 -55 hhcurveto
          -189 -113 97 178 245 177 191 241 191 110 -101 -174 -105 -43 -142 -87 hvcurveto
          hintmask 1101111010100000
          -50 -9 38 57 9 hvcurveto
          51 289 rlineto
          -80 hlineto
          -11 -62 rlineto
          48 -22 -43 24 -63 hhcurveto
          -145 -100 -135 -149 hvcurveto
          hintmask 1011111100100000
          -104 60 -68 103 70 67 35 58 41 vhcurveto
          hintmask 1101111100100000
          -56 6 35 -37 68 hhcurveto
          139 78 160 154 198 -138 136 -225 -294 -211 -224 -284 -203 143 -129 215 hvcurveto
          88 578 rmoveto
          hintmask 1011111001100000
          78 36 -59 -73 -5 hvcurveto
          -103 -6 -70 -80 -88 hhcurveto
          -71 -34 47 68 hvcurveto
          hintmask 1101111100100000
          99 60 101 100 vhcurveto
          endchar
        </CharString>
        <CharString name="atilde">
          120 callgsubr
          77 443 callsubr
          34 96 hintmask 10101010
          -13 callgsubr
          hintmask 01011010
          57 callsubr
          hintmask 10101010
          57 -22 -60 52 -102 hhcurveto
          -148 -101 callgsubr
          hintmask 10100110
          -256 332 -22 callgsubr
          hintmask 10101010
          -65 callgsubr
          hintmask 10100110
          127 callsubr
        </CharString>
        <CharString name="atilde.ss02">
          96 callsubr
          43 61 -15 61 440 callsubr
          hintmask 10110111
          249 607 -22 callgsubr
          hintmask 10111011
          -65 callgsubr
          hintmask 10110111
          -52 -45 -36 -69 -21 hvcurveto
          hintmask 10111011
          148 -511 rmoveto
          hintmask 01011011
          -85 callsubr
          hintmask 10111011
          394 callsubr
          vhcurveto
          -91 callgsubr
        </CharString>
        <CharString name="b">
          71 -9 80 -50 -21 478 79 183 -20 hstemhm
          542 95 hintmask 10111000
          196 446 rmoveto
          52 294 rlineto
          -91 hlineto
          hintmask 01111000
          215 callsubr
          18 101 rlineto
          hintmask 10111000
          -60 24 62 -50 380 callsubr
          171 30 -92 110 -149 hhcurveto
          -97 -81 -50 -61 -46 hvcurveto
          342 -170 121 callsubr
        </CharString>
        <CharString name="backslash">
          -96 -170 1112 hstem
          178 176 vstem
          354 -170 rmoveto
          -86 1112 rlineto
          -90 hlineto
          87 -1112 rlineto
          endchar
        </CharString>
        <CharString name="bar">
          -314 -106 901 hstem
          30 251 vstem
          281 795 rmoveto
          -91 hlineto
          -160 -901 rlineto
          91 hlineto
          endchar
        </CharString>
        <CharString name="braceleft">
          -143 -187 79 963 79 hstemhm
          129 91 -17 89 hintmask 11010000
          116 338 rmoveto
          60 -11 27 -22 -43 vvcurveto
          hintmask 11100000
          -58 -74 -203 -75 vvcurveto
          -75 49 -38 76 vhcurveto
          58 hlineto
          15 79 rlineto
          -41 hlineto
          -43 -23 16 33 hvcurveto
          hintmask 11010000
          54 72 214 69 vvcurveto
          51 -26 29 -60 15 vhcurveto
          1 2 78 15 40 51 12 70 rlinecurve
          15 83 0 110 13 76 rrcurveto
          54 10 30 21 50 hhcurveto
          41 hlineto
          14 79 rlineto
          -58 hlineto
          -88 -69 -50 -98 -17 hvcurveto
          -16 -85 2 -109 -14 -78 -10 -54 -36 -38 -75 -13 rrcurveto
          endchar
        </CharString>
        <CharString name="braceright">
          -143 -187 79 963 79 hstemhm
          -13 394 -106 93 hintmask 11100000
          368 338 rmoveto
          13 71 -73 14 -20 41 9 50 rlinecurve
          14 78 38 109 16 85 rrcurveto
          hintmask 11010000
          98 17 -52 50 -88 hhcurveto
          -58 hlineto
          -13 -79 rlineto
          40 hlineto
          50 23 -21 -54 -9 hvcurveto
          -13 -76 -39 -110 -15 -83 -11 -68 22 -52 74 -16 -1 -2 rcurveline
          -79 -17 -41 -52 -12 -68 -15 -83 0 -110 -14 -76 rrcurveto
          -54 -9 -30 -21 -50 hhcurveto
          -41 hlineto
          -14 -79 rlineto
          58 hlineto
          87 70 50 98 17 hvcurveto
          16 85 -2 109 15 78 rrcurveto
          hintmask 11100000
          8 50 35 41 77 14 rrcurveto
          endchar
        </CharString>
        <CharString name="bracketleft">
          -182 -178 76 968 76 hstem
          50 378 vstem
          248 942 rmoveto
          -198 -1120 rlineto
          180 hlineto
          14 76 rlineto
          -94 hlineto
          170 968 rlineto
          95 hlineto
          13 76 rlineto
          endchar
        </CharString>
        <CharString name="bracketright">
          -182 -186 76 969 75 hstem
          29 377 vstem
          406 934 rmoveto
          -180 609 callsubr
          95 hlineto
          -172 -969 rlineto
          -94 hlineto
          -13 -76 rlineto
          180 hlineto
          endchar
        </CharString>
        <CharString name="breve">
          -285 610 72 76 -20 hstem
          95 290 vstem
          382 740 -92 callsubr
          endchar
        </CharString>
        <CharString name="brokenbar">
          -314 -106 379 144 378 hstem
          30 251 vstem
          189 273 rmoveto
          -91 hlineto
          -68 -379 rlineto
          91 hlineto
          2 523 rmoveto
          91 hlineto
          67 378 rlineto
          -91 hlineto
          endchar
        </CharString>
        <CharString name="bullet">
          -193 211 245 hstem
          89 250 vstem
          191 211 rmoveto
          70 64 54 68 12 hvcurveto
          69 12 -45 54 -69 hhcurveto
          -68 -64 -54 -69 -12 hvcurveto
          -68 -12 45 -54 67 hhcurveto
          endchar
        </CharString>
        <CharString name="c">
          2 362 callsubr
          hstem
          34 95 -46 callgsubr
          endchar
        </CharString>
        <CharString name="cacute">
          2 362 callsubr
          hstem
          34 95 -46 callgsubr
          450 507 -79 callsubr
          endchar
        </CharString>
        <CharString name="caron">
          -294 756 -20 hstem
          87 290 vstem
          377 756 -52 callgsubr
        </CharString>
        <CharString name="ccaron">
          2 362 callsubr
          199 -20 hstem
          34 95 -46 callgsubr
          485 481 -52 callgsubr
        </CharString>
        <CharString name="ccedilla">
          2 500 callsubr
          50 76 412 77 hstem
          34 95 vstem
          40 275 rmoveto
          -29 -162 78 -106 136 -14 -19 -107 rcurveline
          44 callsubr
          8 50 rcurveline
          122 10 91 73 44 101 rrcurveto
          -98 hlineto
          -69 -32 -61 -39 -80 hhcurveto
          -100 -62 71 136 24 hvcurveto
          134 23 87 71 100 hhcurveto
          81 48 -42 -66 7 hvcurveto
          98 hlineto
          115 -8 -76 70 -136 hhcurveto
          -156 -131 -110 -172 -31 hvcurveto
          endchar
        </CharString>
        <CharString name="cdotaccent">
          2 362 callsubr
          60 105 hstem
          34 95 189 105 -46 callgsubr
          322 342 -55 callsubr
        </CharString>
        <CharString name="cedilla">
          -333 500 callsubr
          -56 121 hstemhm
          -79 257 hintmask 11010000
          65 -58 rmoveto
          hintmask 10110000
          11 65 rlineto
          -61 hlineto
          hintmask 11010000
          470 callsubr
          44 callsubr
          rrcurveto
          endchar
        </CharString>
        <CharString name="cent">
          60 -89 169 -75 75 261 270 -166 74 -74 166 hstemhm
          55 87 hintmask 10001100
          349 611 rmoveto
          -16 -92 -149 -13 -100 -106 -24 -138 rlinecurve
          hintmask 01001100
          -23 -138 61 -106 145 -13 rrcurveto
          hintmask 10001100
          -17 -94 rlineto
          54 hlineto
          17 94 120 9 91 73 30 97 rlinecurve
          -85 hlineto
          -64 -27 -57 -40 -83 hhcurveto
          -99 -62 64 118 21 hvcurveto
          118 22 83 65 99 hhcurveto
          hintmask 10100100
          83 43 -41 -63 4 hvcurveto
          85 hlineto
          hintmask 10010100
          6 97 -67 72 -117 9 rrcurveto
          hintmask 10001100
          16 92 rlineto
          endchar
        </CharString>
        <CharString name="circumflex">
          -294 757 -20 hstem
          73 289 vstem
          349 602 -41 callgsubr
          endchar
        </CharString>
        <CharString name="colon">
          -392 -6 124 -103 -21 428 124 hstemhm
          3 123 hintmask 01110000
          54 -6 rmoveto
          34 237 callgsubr
          hintmask 10110000
          554 callsubr
          -35 -32 -27 -35 -6 hvcurveto
          hintmask 01110000
          403 callsubr
          35 hhcurveto
          428 vmoveto
          321 callsubr
        </CharString>
        <CharString name="colon.ss01">
          -367 0 112 316 111 hstem
          9 205 vstem
          30 112 rmoveto
          -21 -112 rlineto
          110 hlineto
          20 112 rlineto
          -35 427 rmoveto
          -19 -111 rlineto
          110 hlineto
          19 111 rlineto
          endchar
        </CharString>
        <CharString name="comma">
          -407 -143 269 hstem
          -78 220 vstem
          42 126 480 callgsubr
        </CharString>
        <CharString name="comma.ss01">
          -418 -125 46 81 92 hstem
          34.5 65.5 vstem
          100 243 callsubr
          endchar
        </CharString>
        <CharString name="copyright">
          187 -6 38 -38 124 149 165 149 123 -39 39 hstemhm
          53 44 -44 131 534 43 hintmask 10001101
          470 704 rmoveto
          -206 -167 -147 -208 -37 hvcurveto
          -208 -36 115 -147 206 hhcurveto
          205 167 147 208 37 hvcurveto
          208 37 -116 147 -205 hhcurveto
          -6 -39 rmoveto
          186 95 -127 -189 -34 hvcurveto
          -188 -33 -140 -129 -186 hhcurveto
          -187 -95 129 188 33 hvcurveto
          189 33 140 127 188 hhcurveto
          hintmask 01110011
          -17 -84 rmoveto
          100 69 -54 -95 9 hvcurveto
          -84 hlineto
          54 -7 -42 29 -57 hhcurveto
          -76 -69 -56 -110 -20 hvcurveto
          -109 -19 50 -56 76 hhcurveto
          62 45 30 53 28 hvcurveto
          84 hlineto
          -90 -42 -88 -59 -101 hhcurveto
          -120 -81 88 144 25 hvcurveto
          144 26 112 87 120 hhcurveto
          endchar
        </CharString>
        <CharString name="currency">
          -68 200 55 244 55 hstem
          105 73 213 74 vstem
          305 499 rmoveto
          55 42 -43 -79 -14 hvcurveto
          -80 -14 -59 -42 -54 hhcurveto
          -56 -38 42 80 14 hvcurveto
          79 14 54 43 56 hhcurveto
          106 -329 rmoveto
          49 42 -49 59 25 29 19 36 7 41 rlinecurve
          7 42 -6 37 -15 28 71 60 rcurveline
          -34 42 -72 -61 rlineto
          19 -26 -33 10 -39 hhcurveto
          -39 -36 -10 -19 -32 hvcurveto
          -50 61 -50 -42 50 -60 -25 -28 -18 -37 -7 -42 rlinecurve
          -7 -41 4 -36 14 -29 -70 -59 rcurveline
          35 -42 70 59 rlineto
          -19 25 33 -10 39 hhcurveto
          39 38 11 19 33 hvcurveto
          endchar
        </CharString>
        <CharString name="d">
          71 -9 80 -50 -21 478 79 183 -20 hstemhm
          34 96 hintmask 10111000
          410 callgsubr
          hintmask 01111000
          367 callgsubr
          hintmask 10111000
          12 callsubr
        </CharString>
        <CharString name="dagger">
          -59 -239 -21 740 68 hstem
          78 469 vstem
          547 548 rmoveto
          -193 -8 51 241 rlineto
          -90 hlineto
          -33 -241 -192 8 -12 -72 194 8 -141 -744 rlineto
          91 hlineto
          122 744 191 -8 rlineto
          endchar
        </CharString>
        <CharString name="daggerdbl">
          -58 -239 -21 237 64.5 438.5 68 hstem
          -10 558 vstem
          535 476 rmoveto
          13 72 -194 -8 51 241 rlineto
          -90 hlineto
          -33 -241 -191 8 -12 -72 194 8 -80 -447 -190 9 -13 -73 193 8 -52 -241 rlineto
          91 hlineto
          33 241 191 -8 14 73 -195 -9 79 447 rlineto
          endchar
        </CharString>
        <CharString name="danda">
          -323 21 -21 741 -20 hstem
          92 212 433 callgsubr
          endchar
        </CharString>
        <CharString name="dcaron">
          149 -9 80 -50 -21 478 79 -22 43 76 86 hstemhm
          34 96 633 60 hintmask 10101110
          823 740 rmoveto
          536 callgsubr
          49 hlineto
          hintmask 10011110
          -4 -23 rlineto
          -35 -7 -16 -18 -35 hhcurveto
          -7 -43 rlineto
          66 42 35 78 14 hvcurveto
          hintmask 10101110
          4 27 2 30 -1 35 rrcurveto
          -783 -464 rmoveto
          575 callsubr
          51 61 44 hvcurveto
          hintmask 01101110
          367 callgsubr
          hintmask 10101110
          12 callsubr
        </CharString>
        <CharString name="dcroat">
          70 -9 80 -50 -21 478 79 48 54 -54 135 hstemhm
          34 96 hintmask 10101100
          410 callgsubr
          hintmask 01101100
          -19 -103 rlineto
          92 hlineto
          107 605 rlineto
          61 hlineto
          hintmask 10110100
          10 54 rlineto
          -61 hlineto
          hintmask 10101100
          14 81 rlineto
          -92 hlineto
          hintmask 10110100
          -14 -81 rlineto
          -112 hlineto
          hintmask 10101100
          -10 -54 rlineto
          112 hlineto
          -27 -155 rlineto
          63 -28 -70 44 -86 hhcurveto
          12 callsubr
        </CharString>
        <CharString name="degree">
          -195 347 55 244 53 hstem
          67 73 212 74 vstem
          70 524 rmoveto
          -107 -19 60 -70 103 hhcurveto
          103 87 70 107 19 hvcurveto
          107 19 -62 68 -102 hhcurveto
          -103 -86 -68 -107 -19 hvcurveto
          279 hmoveto
          -81 -14 -56 -41 -56 hhcurveto
          -57 -37 41 81 14 hvcurveto
          79 14 54 43 56 hhcurveto
          57 39 -43 -79 -14 hvcurveto
          endchar
        </CharString>
        <CharString name="dieresis">
          -291 622 105 hstem
          90 107 56 107 vstem
          135 622 -97 callgsubr
          endchar
        </CharString>
        <CharString name="divide">
          52 91 124 111 80 114 124 hstemhm
          84 525 -371 123 -48 123 hintmask 01010000
          521 callgsubr
          hintmask 11001000
          -320 -315 rmoveto
          -30 callsubr
          hintmask 01100100
          75 429 rmoveto
          321 callsubr
        </CharString>
        <CharString name="divide.ss01">
          52 97 113 116 80 117 112 hstem
          84 525 vstem
          521 callgsubr
          -344 -196 rmoveto
          -20 -113 rlineto
          110 hlineto
          19 113 rlineto
          -35 425 rmoveto
          -19 -112 rlineto
          110 hlineto
          19 112 rlineto
          endchar
        </CharString>
        <CharString name="dollar">
          17 -87 268 -166 -21 533 261 -158 158 -83 -20 hstemhm
          96 418 -51 97 hintmask 10100100
          356 788 rmoveto
          -15 -83 -127 -8 -96 -76 -18 -109 rlinecurve
          -25 -139 103 -28 95 -26 -44 -250 rcurveline
          -70 11 -24 49 4 52 rrcurveto
          -97 hlineto
          hintmask 01001010
          -17 -106 72 -71 119 -10 rrcurveto
          hintmask 10001100
          -14 -81 rlineto
          54 hlineto
          14 81 138 9 86 95 16 93 rlinecurve
          25 139 -101 29 -95 25 rrcurveto
          hintmask 01100010
          43 243 58 -13 25 -45 -2 -42 rlinecurve
          97 hlineto
          hintmask 01001010
          7 101 -60 66 -112 11 rrcurveto
          hintmask 01100010
          15 83 rlineto
          8 -602 rmoveto
          -11 -60 -48 -49 -76 -9 42 236 rcurveline
          60 -20 45 -27 -12 -71 rrcurveto
          -225 331 rmoveto
          hintmask 01010010
          12 71 55 37 68 5 -40 -231 rcurveline
          hintmask 01100010
          -61 19 -47 28 13 71 rrcurveto
          endchar
        </CharString>
        <CharString name="dotaccent">
          -462 622 105 hstem
          87 105 vstem
          131 622 -55 callsubr
        </CharString>
        <CharString name="dotlessi">
          236 callgsubr
          hstem
          26 188 vstem
          40 callgsubr
          endchar
        </CharString>
        <CharString name="dottedcircle">
          46 -9 84 -70 84 -52 84 -40 84 -32 84 -23 84 -25 84 -22 84 -32 84 -37 84 -57 84 -69 84 hstemhm
          50 86 -71 86 -56 86 -40 86 -34 86 -21 86 -27 86 -24 86 -33 86 -47 86 -52 86 -76 86 hintmask 000100001000001000000100
          557 409 -29 callgsubr
          -376 -286 -29 callgsubr
          hintmask 010001000000100010000000
          98 -76 -29 callgsubr
          -143 189 -29 callgsubr
          hintmask 100000010000010000100000
          267 -203 -29 callgsubr
          -252 324 -29 callgsubr
          hintmask 001000000100000100001000
          367 -278 -29 callgsubr
          -291 377 -29 callgsubr
          hintmask 000010000001000001000010
          364 -281 -29 callgsubr
          -247 323 -29 callgsubr
          hintmask 000000100010000000010001
          257 -203 -29 callgsubr
          -136 188 -29 callgsubr
          endchar
        </CharString>
        <CharString name="doubledanda">
          -112 21 -21 741 -20 hstem
          92 423 433 callgsubr
          128 hmoveto
          -130 -741 rlineto
          83 hlineto
          130 741 rlineto
          endchar
        </CharString>
        <CharString name="dvA">
          222 25 callgsubr
          -10 callsubr
          -215 297 callsubr
          hintmask 1101001010000000
          -57 callgsubr
          hintmask 1100110010000000
          552 callgsubr
          endchar
        </CharString>
        <CharString name="dvAA">
          514 25 callgsubr
          209 60 callsubr
          84 -35 callsubr
          12 70 rlineto
          -508 297 callsubr
          hintmask 1101001010000000
          -57 callgsubr
          hintmask 1100110010000000
          552 callgsubr
          endchar
        </CharString>
        <CharString name="dvAI">
          46 19 72 579 70 173 68 hstem
          78 84 vstem
          291 19 rmoveto
          30 callgsubr
          112 -53 callsubr
          -117 hlineto
          223 -91 -48 18 -131 hhcurveto
          -41 502 callsubr
          41 hlineto
          98 31 -14 -159 74 hvcurveto
          -509 235 callgsubr
          endchar
        </CharString>
        <CharString name="dvAU">
          166 callsubr
          86 54 97 55 hstemhm
          400 79 -7 7 hintmask 1110010110100000
          264 callgsubr
          289 -98 260 callsubr
          106 22 -5 -90 99 hvcurveto
          -352 297 callsubr
          hintmask 1101001110100000
          -57 callgsubr
          hintmask 1100110111000000
          -55 -10 -51 -57 -88 hhcurveto
          -40 hlineto
          -47 callsubr
          hintmask 1110010110100000
          343 callgsubr
        </CharString>
        <CharString name="dvAbbreviationsign">
          -112 187 53 218 52 hstem
          78 338 vstem
          276 510 rmoveto
          -99 -79 -67 -94 -17 hvcurveto
          -94 -17 60 -68 98 hhcurveto
          97 77 67 93 17 hvcurveto
          96 16 -57 67 -96 hhcurveto
          -8 -52 rmoveto
          65 36 -46 -65 -11 hvcurveto
          -63 -11 -53 -44 -64 hhcurveto
          -67 -40 45 64 11 hvcurveto
          64 11 56 45 67 hhcurveto
          endchar
        </CharString>
        <CharString name="dvAcandra">
          222 35 callgsubr
          91 64 hstemhm
          400 79 -7 7 hintmask 1100110110000000
          255 448 rmoveto
          -47 callsubr
          hintmask 1110010101000000
          368 callsubr
          83 hlineto
          119 670 rlineto
          -10 callsubr
          -215 297 callsubr
          hintmask 1101001101000000
          -57 callgsubr
          hintmask 1100110101000000
          552 callgsubr
          770 568 66 callgsubr
          endchar
        </CharString>
        <CharString name="dvAnusvara">
          -605 835 112 hstem
          -112 112 vstem
          891 vmoveto
          31 5 -19 25 -33 hhcurveto
          -31 -29 -25 -31 -5 hvcurveto
          -31 -5 20 -25 187 callsubr
          25 31 5 hvcurveto
          endchar
        </CharString>
        <CharString name="dvAnusvara.amI">
          -605 835 112 hstem
          66 114 vstem
          180 891 rmoveto
          31 5 -21 25 -32 hhcurveto
          -31 -29 -25 -31 -6 hvcurveto
          -31 -5 20 -25 32 514 callsubr
        </CharString>
        <CharString name="dvAvagraha">
          -29 61 72 468 71 hstem
          22 520 vstem
          281 61 rmoveto
          97 55 55 68 12 hvcurveto
          28 161 -243 83 20 112 rrcurveto
          50 9 48 11 40 hhcurveto
          183 hlineto
          12 71 rlineto
          -203 hlineto
          -83 -74 -33 -87 -15 hvcurveto
          -30 -164 245 -83 -20 -109 rrcurveto
          -36 -5 -31 -27 -52 hhcurveto
          -239 hlineto
          -13 -72 rlineto
          endchar
        </CharString>
        <CharString name="dvB">
          461 callsubr
          564 332 rmoveto
          113 18 -61 125 -170 -40 callgsubr
          160 105 111 130 22 hvcurveto
          -217 179 24 callgsubr
          278 159 -88 callsubr
          -600 -105 callsubr
          259 -520 -85 callgsubr
          endchar
        </CharString>
        <CharString name="dvBA">
          84 21 -21 91 62 547 callsubr
          519 hmoveto
          11 callgsubr
          -742 -105 callsubr
          530 332 callgsubr
          349 callsubr
          -138 -116 -90 -146 -25 hvcurveto
          160 callgsubr
          -21 callgsubr
          endchar
        </CharString>
        <CharString name="dvBH">
          -87 101 471 callsubr
          223 72 hstem
          131 516 callsubr
          vstem
          224 172 -51 callgsubr
          198 hlineto
          12 69 rlineto
          -198 334 callsubr
          -66 callgsubr
          108 callsubr
          endchar
        </CharString>
        <CharString name="dvBHA">
          189 346 callgsubr
          -63 72 hstemhm
          131 516 callsubr
          hintmask 11110010
          224 172 -51 callgsubr
          164 hlineto
          -68 -385 116 callsubr
          -50 -286 rlineto
          -164 hlineto
          14 81 rlineto
          hintmask 11101110
          -66 callgsubr
          hintmask 11110010
          108 callsubr
          endchar
        </CharString>
        <CharString name="dvBH_LA">
          806 69 73 -41 71 99 127 -13 69 15 74 -74 271 -70 70 -63 72 hstemhm
          131 516 callsubr
          85 84 268 63.5 271.5 86 hintmask 0101001001101000
          224 172 -51 callgsubr
          142 hlineto
          -8 -21 -7 -23 -4 -24 rrcurveto
          hintmask 1010010001111000
          -139 -26 67 -109 157 hhcurveto
          11 8 1 1 11 hvcurveto
          14 73 rlineto
          -1 -10 -10 -1 -8 hhcurveto
          -107 -41 72 98 17 hvcurveto
          90 16 55 197 callsubr
          28 -77 -106 -20 hvcurveto
          -2 -15 rlineto
          71 hlineto
          1 15 rlineto
          108 20 57 75 90 hhcurveto
          152 callgsubr
          -99 -17 -69 -71 -103 hhcurveto
          -9 -11 1 1 -8 hvcurveto
          -14 -73 rlineto
          -1 11 15 -1 10 hhcurveto
          157 -2 98 102 24 140 21 118 -45 86 -86 23 rrcurveto
          hintmask 1010101001101000
          23 134 rlineto
          246 -36 callsubr
          -884 -105 callsubr
          555 hlineto
          -22 -129 -93 -12 -55 -67 -27 -64 rlinecurve
          -2 hlineto
          69 -6 -39 76 -107 hhcurveto
          hintmask 0101000111101000
          -75 -66 -31 -58 -45 584 callsubr
          -66 callgsubr
          hintmask 0101001001101000
          108 callsubr
          endchar
        </CharString>
        <CharString name="dvBH_NA">
          704 507 callsubr
          -63 72 hstemhm
          131 516 callsubr
          427 66 hintmask 1101010011000000
          224 172 -51 callgsubr
          152 hlineto
          -11 -21 -8 -24 -5 -26 rrcurveto
          hintmask 1010110011000000
          -114 -20 74 -83 119 hhcurveto
          107 96 392 callsubr
          59 callgsubr
          196 hlineto
          -77 -434 rlineto
          84 -35 callsubr
          12 70 rlineto
          -753 -105 callsubr
          538 359 callgsubr
          hintmask 1101001111000000
          -63 -56 -17 -33 -43 hvcurveto
          -198 334 callsubr
          108 callgsubr
          -108 -77 -70 -104 -16 hvcurveto
          -16 callsubr
          66 10 46 278 callsubr
          -93 hlineto
          -111 -93 -62 -114 -21 hvcurveto
          422 callgsubr
          hintmask 1101010011000000
          108 callsubr
          hintmask 1010110011000000
          217 2 rmoveto
          73 13 62 51 75 593 callsubr
          -14 560 callsubr
          13 hvcurveto
          endchar
        </CharString>
        <CharString name="dvBH_R">
          -95 121 70 198 68 220 72 hstem
          130 81 189 75 vstem
          228 191 rmoveto
          -61 -39 41 64 12 hvcurveto
          58 12 54 194 callsubr
          199 hlineto
          12 68 rlineto
          -200 hlineto
          14 78 rlineto
          113 callsubr
          531 callgsubr
          -147 -402 rmoveto
          325 277 13 80 -433 -357 rlineto
          endchar
        </CharString>
        <CharString name="dvBH_RA">
          210 21 -21 121 70 198 68 213 70 -63 72 hstemhm
          130 81 189 75 hintmask 11110010
          228 191 rmoveto
          -61 -39 41 64 12 hvcurveto
          58 12 54 194 callsubr
          189 hlineto
          -20 -114 -422 -349 rlineto
          95 hlineto
          316 269 -35 -195 rlineto
          76 -99 callsubr
          133 -53 callsubr
          -211 hlineto
          603 callgsubr
          hintmask 11101110
          113 callsubr
          hintmask 11110010
          531 callgsubr
          endchar
        </CharString>
        <CharString name="dvBH_R_YA">
          635 392 callgsubr
          -61 70 198 65 216 70 -63 72 hstemhm
          130 81 189 75 94 82 hintmask 1011100110000000
          228 191 rmoveto
          -61 -39 41 64 12 hvcurveto
          58 10 56 194 callsubr
          131 -2 hlineto
          -10 -54 2 -46 13 -40 -389 -321 rcurveline
          95 hlineto
          hintmask 1101100110000000
          318 272 rlineto
          -55 38 68 -31 90 14 callgsubr
          -166 334 callsubr
          hintmask 1011011110000000
          594 callsubr
          -123 hhcurveto
          -108 -77 -70 -102 -15 hvcurveto
          -2 -13 -1 -15 -13 vvcurveto
          81 hlineto
          14 0 11 2 12 vhcurveto
          65 10 45 39 56 hhcurveto
          66 20 -50 -79 -14 hvcurveto
          -17 -94 rlineto
          -95 hlineto
          -109 -93 -56 -103 -20 hvcurveto
          -103 -20 67 459 callgsubr
          hintmask 1011100110000000
          531 callgsubr
          hintmask 1101100110000000
          391 -146 rmoveto
          -127 -65 73 125 24 hvcurveto
          1 3 550 callgsubr
          5 82 64 22 -4 callgsubr
          endchar
        </CharString>
        <CharString name="dvBH_VA">
          581 562 callsubr
          107 70 -63 72 hstemhm
          131 516 callsubr
          94 82 341 20 hintmask 1101110011100000
          794 163 146 callsubr
          35 -87 -80 -14 hvcurveto
          -75 -14 -65 -90 -118 hhcurveto
          hintmask 1011110011100000
          -570 9 -51 callgsubr
          144 437 callsubr
          hintmask 1101110011100000
          16 callsubr
          hintmask 1011101111100000
          -66 callgsubr
          hintmask 1011110011100000
          108 callsubr
          endchar
        </CharString>
        <CharString name="dvBH_YA">
          635 404 callsubr
          -60 70 203 555 callsubr
          -63 72 hstemhm
          131 516 callsubr
          92 82 hintmask 1101100110000000
          224 172 -44 callgsubr
          hintmask 1011100110000000
          600 10 rmoveto
          -127 -65 73 125 24 hvcurveto
          1 3 550 callgsubr
          5 82 64 22 -4 callgsubr
          hintmask 1101100110000000
          -393 126 599 callgsubr
          131 hlineto
          hintmask 1011100110000000
          -169 -31 90 -104 166 14 callgsubr
          -165 334 callsubr
          hintmask 1101011110000000
          -66 callgsubr
          hintmask 1101100110000000
          108 callsubr
          endchar
        </CharString>
        <CharString name="dvB_BA">
          518 537 callgsubr
          -59 62 358 59 -58 57 101 70 hstemhm
          59 70 371 68 370 16 hintmask 1101011110000000
          347 511 24 callgsubr
          606 -511 rmoveto
          11 callgsubr
          -1176 -105 callsubr
          964 332 callgsubr
          hintmask 1100111110000000
          349 callsubr
          -93 -83 -41 -71 -52 hvcurveto
          hintmask 1101011110000000
          64 -28 -64 49 -106 -40 callgsubr
          103 80 46 67 50 hvcurveto
          hintmask 1011011110000000
          -71 30 71 -42 88 118 callgsubr
          hintmask 1101011110000000
          -588 150 -85 callgsubr
          hintmask 1010111110000000
          439 3 rmoveto
          -100 -73 65 196 callsubr
          7 395 callsubr
          29 233 -240 rcurveline
          -27 -34 -44 -18 -53 hhcurveto
          61 359 88 callgsubr
        </CharString>
        <CharString name="dvB_BHA">
          615 537 callgsubr
          -49 471 callsubr
          57 59 100 608 callsubr
          59 70 371 64 260 78 hintmask 1011110101000000
          650 172 rmoveto
          -61 -38 183 callsubr
          68 hhcurveto
          92 257 callgsubr
          -15 -46 -49 -66 hhcurveto
          206 136 rmoveto
          391 callsubr
          412 callsubr
          133 hlineto
          11 482 callgsubr
          -163 334 callsubr
          hintmask 1101101101000000
          126 22 -36 88 -124 hhcurveto
          hintmask 1101110111000000
          -22 -20 -3 -6 -18 hvcurveto
          -660 -105 callsubr
          687 hlineto
          4 12 12 3 14 hhcurveto
          64 19 120 callsubr
          -94 hlineto
          -55 -50 -15 -30 -40 hvcurveto
          86 -15 -67 75 -131 -40 callgsubr
          92 73 36 56 50 hvcurveto
          hintmask 1011110111000000
          -51 23 53 -31 72 hhcurveto
          hintmask 1011110101000000
          108 callsubr
          hintmask 1101110111000000
          -509 203 rmoveto
          90 callgsubr
          -1 -4 -1 -4 -1 -4 -2 -7 -2 -7 -2 -8 -9 -24 -14 -25 -19 -22 413 callsubr
          -62 -361 -85 callgsubr
          endchar
        </CharString>
        <CharString name="dvB_BH_RA">
          636 537 callgsubr
          -29 70 198 68 54 59 100 608 callsubr
          59 70 371 63 263 76 hintmask 1101110111000000
          519 callgsubr
          -4 -1 -5 -1 -4 rrcurveto
          -1 -3 -1 -3 -3 vvcurveto
          -9 -28 -15 -29 -22 -26 413 callsubr
          -62 -361 -85 callgsubr
          hintmask 1011110111000000
          370 41 rmoveto
          -62 -38 41 64 12 hvcurveto
          58 12 54 35 67 hhcurveto
          94 hlineto
          -11 -66 rlineto
          -83 -14 -47 -49 -67 hhcurveto
          56 479 rmoveto
          5 13 13 2 14 hhcurveto
          66 19 -50 -79 -14 hvcurveto
          -16 -91 rlineto
          -95 hlineto
          -56 -52 -15 -29 -40 hvcurveto
          84 -16 -66 73 -130 hhcurveto
          -148 -118 -97 -143 -23 hvcurveto
          hintmask 1101110111000000
          -143 -23 94 -96 144 hhcurveto
          98 77 41 62 50 hvcurveto
          hintmask 1011110111000000
          -46 24 51 -27 69 hhcurveto
          531 callgsubr
          11 61 rlineto
          188 hlineto
          -21 -115 -419 -348 rlineto
          94 hlineto
          316 269 -35 -195 rlineto
          76 69 callsubr
          131 -36 callsubr
          -212 hlineto
          -50 -283 rlineto
          -189 hlineto
          14 78 rlineto
          hintmask 1101101111000000
          594 callsubr
          -123 hhcurveto
          hintmask 1101110111000000
          -23 -20 -3 -6 -18 hvcurveto
          -661 403 callgsubr
        </CharString>
        <CharString name="dvB_DA">
          440 -16 318 -211 59 -51 67 322 72 -49 161 callsubr
          79 hintmask 01001111
          347 511 24 callgsubr
          -62 -361 -85 callgsubr
          838 520 -88 callsubr
          -1098 -105 callsubr
          870 hlineto
          hintmask 01010111
          191 callsubr
          -102 -94 -33 -74 -58 hvcurveto
          hintmask 01001111
          66 -28 -64 51 401 callgsubr
          102 79 45 66 51 hvcurveto
          hintmask 00110111
          -65 27 63 -38 80 151 callgsubr
          hintmask 10010111
          -12 callsubr
          hintmask 00110111
          -90 callsubr
          endchar
        </CharString>
        <CharString name="dvB_DHA">
          523 537 callgsubr
          -52 70 594 callgsubr
          57 406 callgsubr
          hintmask 1100101100111000
          350 callgsubr
          -26 -34 -43 -18 -52 hhcurveto
          921 520 rmoveto
          304 callgsubr
          hintmask 1010101010111000
          -17 callsubr
          57 9 49 306 callsubr
          hintmask 1100101001111000
          434 callsubr
          hintmask 1101010100111000
          -22 422 callsubr
          -627 -105 callsubr
          541 130 callsubr
          -54 -8 -63 -37 -25 -73 -9 -27 -15 -26 -20 -23 448 callgsubr
          hintmask 1100101100111000
          10 57 rlineto
          hintmask 1100110100111000
          319 callsubr
          62 51 hvcurveto
          hintmask 1010101100111000
          -60 25 69 -33 84 hhcurveto
          105 88 47 75 53 hvcurveto
          -39 -220 9 callsubr
        </CharString>
        <CharString name="dvB_DH_VA">
          947 537 callgsubr
          -54 67 -66 71 594 callgsubr
          41 68 -52 406 callgsubr
          488 20 hintmask 1100010011001111
          350 callgsubr
          -27 -34 -43 -17 -52 hhcurveto
          1211 520 401 callsubr
          hintmask 1001011000101111
          54 callsubr
          57 9 48 46 60 hhcurveto
          69 28 -50 -72 -19 hvcurveto
          64 hlineto
          hintmask 1100010010011111
          123 callsubr
          hintmask 1100100101001111
          598 callgsubr
          -19 hvcurveto
          -627 -105 callsubr
          541 130 callsubr
          -56 -8 -66 -38 -22 -80 -10 -24 -14 -23 -18 -21 448 callgsubr
          hintmask 1100010011001111
          10 57 rlineto
          hintmask 1100010101001111
          319 callsubr
          63 51 hvcurveto
          hintmask 1001010011001111
          -64 27 75 -31 96 hhcurveto
          115 86 45 82 55 hvcurveto
          hintmask 1010011001001111
          188 callsubr
          81 hlineto
          -221 163 85 callgsubr
          endchar
        </CharString>
        <CharString name="dvB_JA">
          652 537 callgsubr
          -19 445 callgsubr
          12 161 callsubr
          72 hintmask 11010111
          286 150 131 callsubr
          hintmask 10111111
          89 callsubr
          hintmask 11010111
          329 callsubr
          hintmask 10110111
          265 callgsubr
          hintmask 11011111
          -858 -159 166 callgsubr
          endchar
        </CharString>
        <CharString name="dvB_JHA">
          703 314 callgsubr
          -56 323 -232 59 109.5 63.5 -60 60 166 61 -39 59 -13 -20 133 70 hstemhm
          62 72 735 79 hintmask 0101101001110000
          290 150 rmoveto
          -98 -75 66 196 callsubr
          7 43 18 37 25 28 236 -240 rcurveline
          -28 -34 -44 -18 -55 hhcurveto
          407 173 rmoveto
          -59 -47 22 60 12 hvcurveto
          69 11 69 15 56 hhcurveto
          199 hlineto
          12 61 rlineto
          -1 hlineto
          21 120 rlineto
          207 hlineto
          -61 -347 rlineto
          hintmask 0010001001110000
          26 -323 rmoveto
          567 callsubr
          -1361 -70 callgsubr
          860 hlineto
          -21 -120 rlineto
          -140 hlineto
          -92 -97 -36 -108 -18 hvcurveto
          -9 -43 -8 -48 -19 -50 -34 -40 rlinecurve
          hintmask 0101100101110000
          -233 241 rlineto
          29 39 49 16 50 hhcurveto
          29 25 -4 -8 22 hvcurveto
          hintmask 0101100011110000
          10 58 rlineto
          hintmask 0101010101110000
          8 -24 -30 5 -29 hhcurveto
          -156 -112 -97 -143 -26 hvcurveto
          -143 -24 94 -96 394 callgsubr
          89 92 118 38 hvcurveto
          27 -25 42 -12 45 -1 rrcurveto
          84 hlineto
          92 41 -42 -67 -13 hvcurveto
          -52 -8 -43 -46 -83 hhcurveto
          -94 -40 53 62 3 hvcurveto
          hintmask 1000101001110000
          -72 hlineto
          -44 -248 rlineto
          76 hlineto
          hintmask 0101101001110000
          28 154 rlineto
          -23 9 37 -61 108 hhcurveto
          117 68 67 84 14 hvcurveto
          10 54 -14 37 -24 25 188 -1 rcurveline
          hintmask 0010001001110000
          -45 -259 rlineto
          endchar
        </CharString>
        <CharString name="dvB_J_YA">
          1108 537 callgsubr
          -38 70 -51 73 191 70 46 161 callsubr
          72 476 82 hintmask 1100111111000000
          347 511 166 callgsubr
          -61 -361 rmoveto
          -98 -75 66 112 19 hvcurveto
          8 395 callsubr
          30 233 -242 rcurveline
          -27 -34 -44 -18 -53 hhcurveto
          hintmask 1010111111000000
          1012 32 rmoveto
          -127 -61 94 125 25 hvcurveto
          1 0 2 1 2 vhcurveto
          122 7 84 60 20 114 15 591 callsubr
          515 callgsubr
          -106 -24 -92 -72 -109 387 callsubr
          -1767 -105 callsubr
          1268 335 callgsubr
          -100 -17 -73 -36 -111 hhcurveto
          -267 hlineto
          -23 -131 rlineto
          hintmask 1001111111000000
          89 callsubr
          hintmask 1100111111000000
          329 callsubr
          hintmask 1001111111000000
          -46 21 45 -28 70 hhcurveto
          122 -1 82 84 20 118 11 63 rcurveline
          127 hlineto
          16 14 0 11 hhcurveto
          hintmask 1010111111000000
          -164 -22 83 -119 159 hhcurveto
          103 77 45 58 46 hvcurveto
          155 callgsubr
          85 54 callgsubr
        </CharString>
        <CharString name="dvB_JxA">
          652 -60 112 -31 -21 91 59 -19 445 callgsubr
          12 161 callsubr
          72 -6 112 hintmask 1010101101000000
          678 -5 rmoveto
          -106 callgsubr
          -392 155 131 callsubr
          hintmask 0101111110000000
          89 callsubr
          hintmask 0110101110000000
          329 callsubr
          hintmask 0101101110000000
          265 callgsubr
          hintmask 0110111110000000
          -858 -159 166 callgsubr
          endchar
        </CharString>
</ttFont>
